<svg width="13" height="14" viewBox="0 0 13 14" fill="none" xmlns="http://www.w3.org/2000/svg">
<path d="M7.69547 3.50008C8.26523 3.61124 8.78886 3.8899 9.19934 4.30038C9.60982 4.71086 9.88848 5.23449 9.99964 5.80425M7.69547 1.16675C8.87922 1.29825 9.98307 1.82835 10.8258 2.67C11.6685 3.51165 12.2 4.61484 12.333 5.79841M5.46538 8.08687C4.76446 7.38595 4.211 6.59341 3.805 5.7478C3.77008 5.67506 3.75262 5.63869 3.7392 5.59267C3.69153 5.42914 3.72577 5.22832 3.82494 5.08982C3.85285 5.05084 3.88619 5.0175 3.95287 4.95082C4.15681 4.74688 4.25878 4.64491 4.32545 4.54238C4.57686 4.15569 4.57686 3.65719 4.32545 3.2705C4.25878 3.16796 4.15681 3.06599 3.95287 2.86206L3.8392 2.74838C3.52919 2.43838 3.37419 2.28337 3.20772 2.19917C2.87664 2.03171 2.48565 2.03171 2.15457 2.19917C1.9881 2.28337 1.8331 2.43838 1.52309 2.74838L1.43114 2.84034C1.12219 3.14928 0.967715 3.30376 0.849738 3.51378C0.718826 3.74682 0.624698 4.10877 0.625493 4.37607C0.62621 4.61696 0.672937 4.78159 0.766391 5.11085C1.26862 6.88033 2.21623 8.55004 3.60922 9.94303C5.00221 11.336 6.67192 12.2836 8.4414 12.7859C8.77066 12.8793 8.93529 12.926 9.17618 12.9268C9.44347 12.9276 9.80543 12.8334 10.0385 12.7025C10.2485 12.5845 10.403 12.4301 10.7119 12.1211L10.8039 12.0292C11.1139 11.7192 11.2689 11.5641 11.3531 11.3977C11.5205 11.0666 11.5205 10.6756 11.3531 10.3445C11.2689 10.1781 11.1139 10.0231 10.8039 9.71305L10.6902 9.59937C10.4863 9.39544 10.3843 9.29347 10.2817 9.2268C9.89506 8.97539 9.39656 8.97539 9.00987 9.2268C8.90733 9.29347 8.80537 9.39544 8.60143 9.59937C8.53475 9.66606 8.50141 9.6994 8.46243 9.7273C8.32393 9.82648 8.12311 9.86072 7.95957 9.81305C7.91355 9.79963 7.87719 9.78217 7.80445 9.74725C6.95884 9.34125 6.1663 8.78779 5.46538 8.08687Z" stroke="#FF6600" stroke-linecap="round" stroke-linejoin="round"/>
</svg>
