<svg width="14" height="14" viewBox="0 0 14 14" fill="none" xmlns="http://www.w3.org/2000/svg">
<path d="M8.19547 3.50008C8.76523 3.61124 9.28886 3.8899 9.69934 4.30038C10.1098 4.71086 10.3885 5.23449 10.4996 5.80425M8.19547 1.16675C9.37922 1.29825 10.4831 1.82835 11.3258 2.67C12.1685 3.51165 12.7 4.61484 12.833 5.79841M5.96538 8.08687C5.26446 7.38595 4.711 6.59341 4.305 5.7478C4.27008 5.67506 4.25262 5.63869 4.2392 5.59267C4.19153 5.42914 4.22577 5.22832 4.32494 5.08982C4.35285 5.05084 4.38619 5.0175 4.45287 4.95082C4.65681 4.74688 4.75878 4.64491 4.82545 4.54238C5.07686 4.15569 5.07686 3.65719 4.82545 3.2705C4.75878 3.16796 4.65681 3.06599 4.45287 2.86206L4.3392 2.74838C4.02919 2.43838 3.87419 2.28337 3.70772 2.19917C3.37664 2.03171 2.98565 2.03171 2.65457 2.19917C2.4881 2.28337 2.3331 2.43838 2.02309 2.74838L1.93114 2.84034C1.62219 3.14928 1.46772 3.30376 1.34974 3.51378C1.21883 3.74682 1.1247 4.10877 1.12549 4.37607C1.12621 4.61696 1.17294 4.78159 1.26639 5.11085C1.76862 6.88033 2.71623 8.55004 4.10922 9.94303C5.50221 11.336 7.17192 12.2836 8.9414 12.7859C9.27066 12.8793 9.43529 12.926 9.67618 12.9268C9.94347 12.9276 10.3054 12.8334 10.5385 12.7025C10.7485 12.5845 10.903 12.4301 11.2119 12.1211L11.3039 12.0292C11.6139 11.7192 11.7689 11.5641 11.8531 11.3977C12.0205 11.0666 12.0205 10.6756 11.8531 10.3445C11.7689 10.1781 11.6139 10.0231 11.3039 9.71305L11.1902 9.59937C10.9863 9.39544 10.8843 9.29347 10.7817 9.2268C10.3951 8.97539 9.89656 8.97539 9.50987 9.2268C9.40733 9.29347 9.30537 9.39544 9.10143 9.59937C9.03475 9.66606 9.00141 9.6994 8.96243 9.7273C8.82393 9.82648 8.62311 9.86072 8.45957 9.81305C8.41355 9.79963 8.37719 9.78217 8.30445 9.74725C7.45884 9.34125 6.6663 8.78779 5.96538 8.08687Z" stroke="#525252" stroke-linecap="round" stroke-linejoin="round"/>
</svg>
