<svg width="13" height="14" viewBox="0 0 13 14" fill="none" xmlns="http://www.w3.org/2000/svg">
<path d="M3.05488 6.55021C3.01863 6.31655 2.99981 6.07716 2.99981 5.83342C2.99981 3.25609 5.1029 1.16675 7.69718 1.16675C10.2915 1.16675 12.3946 3.25609 12.3946 5.83342C12.3946 6.41562 12.2872 6.97293 12.0912 7.48688C12.0505 7.59362 12.0301 7.64699 12.0209 7.68865C12.0117 7.72994 12.0082 7.75898 12.0072 7.80126C12.0062 7.84393 12.0119 7.89093 12.0235 7.98494L12.2584 9.89255C12.2838 10.0991 12.2965 10.2023 12.2621 10.2774C12.232 10.3431 12.1786 10.3954 12.1121 10.424C12.0363 10.4566 11.9334 10.4415 11.7275 10.4113L9.86943 10.1389C9.77242 10.1247 9.7239 10.1176 9.67973 10.1179C9.63602 10.1181 9.60578 10.1213 9.56301 10.1303C9.51977 10.1394 9.46454 10.1601 9.35408 10.2015C8.83881 10.3945 8.28041 10.5001 7.69718 10.5001C7.45324 10.5001 7.21364 10.4816 6.97972 10.446M3.95159 12.8334C5.68111 12.8334 7.08317 11.397 7.08317 9.62508C7.08317 7.85317 5.68111 6.41675 3.95159 6.41675C2.22207 6.41675 0.820013 7.85317 0.820013 9.62508C0.820013 9.98126 0.876665 10.3239 0.981241 10.644C1.02545 10.7793 1.04755 10.847 1.0548 10.8932C1.06238 10.9415 1.0637 10.9686 1.06088 11.0173C1.05818 11.064 1.0465 11.1168 1.02312 11.2224L0.666504 12.8334L2.41347 12.5948C2.50883 12.5818 2.5565 12.5753 2.59814 12.5756C2.64197 12.5759 2.66524 12.5783 2.70823 12.5868C2.74906 12.595 2.80976 12.6164 2.93116 12.6592C3.25102 12.7721 3.59432 12.8334 3.95159 12.8334Z" stroke="#FF6600" stroke-linecap="round" stroke-linejoin="round"/>
</svg>
