<svg width="12" height="12" viewBox="0 0 12 12" fill="none" xmlns="http://www.w3.org/2000/svg">
<path d="M3.3807 10.551C4.15157 10.9956 5.04597 11.25 5.99979 11.25C8.89929 11.25 11.25 8.8995 11.25 6C11.25 3.10051 8.89949 0.75 6 0.75C3.1005 0.75 0.75 3.10051 0.75 6C0.75 6.95382 1.00436 7.84823 1.44895 8.6191L1.45067 8.62208C1.49345 8.69625 1.51502 8.73365 1.52479 8.769C1.534 8.80234 1.53658 8.83231 1.53422 8.86682C1.53168 8.9039 1.51918 8.94235 1.49356 9.01921L1.04508 10.3646L1.04452 10.3664C0.949896 10.6503 0.902583 10.7922 0.936307 10.8868C0.965712 10.9693 1.03098 11.0343 1.11344 11.0637C1.20781 11.0974 1.34911 11.0503 1.63174 10.9561L1.63525 10.9548L2.98069 10.5063C3.0573 10.4808 3.09625 10.4678 3.13326 10.4653C3.16777 10.4629 3.19754 10.466 3.23088 10.4753C3.26632 10.4851 3.30374 10.5066 3.37829 10.5496L3.3807 10.551Z" stroke="#525252" stroke-linecap="round" stroke-linejoin="round"/>
</svg>
