<svg width="14" height="12" viewBox="0 0 14 12" fill="none" xmlns="http://www.w3.org/2000/svg">
<path d="M9.9165 7.45841V5.70516C9.9165 5.60046 9.9165 5.54812 9.90056 5.5019C9.88647 5.46103 9.86346 5.42381 9.83321 5.39292C9.799 5.35799 9.75218 5.33458 9.65854 5.28776L6.99984 3.95841M2.33317 4.54175V8.51227C2.33317 8.72922 2.33317 8.83769 2.36701 8.93267C2.39693 9.01663 2.4457 9.09262 2.50956 9.1548C2.5818 9.22514 2.68041 9.27034 2.87763 9.36073L6.61096 11.0718C6.75401 11.1374 6.82554 11.1702 6.90005 11.1831C6.96608 11.1946 7.03359 11.1946 7.09962 11.1831C7.17414 11.1702 7.24566 11.1374 7.38872 11.0718L11.122 9.36073C11.3193 9.27034 11.4179 9.22514 11.4901 9.1548C11.554 9.09262 11.6027 9.01663 11.6327 8.93267C11.6665 8.83769 11.6665 8.72922 11.6665 8.51227V4.54175M1.1665 3.95841L6.79114 1.1461C6.86766 1.10783 6.90592 1.0887 6.94605 1.08117C6.9816 1.0745 7.01808 1.0745 7.05362 1.08117C7.09375 1.0887 7.13201 1.10783 7.20854 1.1461L12.8332 3.95841L7.20854 6.77073C7.13201 6.80899 7.09375 6.82812 7.05362 6.83565C7.01808 6.84232 6.9816 6.84232 6.94605 6.83565C6.90592 6.82812 6.86766 6.80899 6.79114 6.77073L1.1665 3.95841Z" stroke="#525252" stroke-linecap="round" stroke-linejoin="round"/>
</svg>
