<svg width="14" height="12" viewBox="0 0 14 12" fill="none" xmlns="http://www.w3.org/2000/svg">
<path d="M7.53245 8.91667H11.7172M7.53245 8.91667L6.4165 11.25M7.53245 8.91667L9.20384 5.42193C9.33852 5.14033 9.40586 4.99952 9.498 4.95503C9.57813 4.91633 9.67154 4.91633 9.75167 4.95503C9.84381 4.99952 9.91115 5.14033 10.0458 5.42193L11.7172 8.91667M11.7172 8.91667L12.8332 11.25M1.1665 1.91667H4.6665M4.6665 1.91667H6.70817M4.6665 1.91667V0.75M6.70817 1.91667H8.1665M6.70817 1.91667C6.41876 3.64175 5.74718 5.20444 4.76307 6.51592M5.83317 7.16667C5.47586 7.00614 5.11138 6.78288 4.76307 6.51592M4.76307 6.51592C3.9741 5.91119 3.26812 5.0822 2.9165 4.25M4.76307 6.51592C3.82701 7.76338 2.60817 8.78355 1.1665 9.5" stroke="#525252" stroke-linecap="round" stroke-linejoin="round"/>
</svg>
