<svg width="14" height="10" viewBox="0 0 14 10" fill="none" xmlns="http://www.w3.org/2000/svg">
<path d="M12.7748 1.62135C12.6264 1.54913 12.4605 1.5207 12.2965 1.5394C12.1326 1.5581 11.9773 1.62316 11.849 1.72694L10.3539 2.92277L10.3539 2.66669C10.3882 2.37114 10.3552 2.07167 10.2574 1.79068C10.1595 1.50968 9.99945 1.25445 9.78907 1.04407C9.57868 0.83368 9.32345 0.673589 9.04246 0.575769C8.76147 0.477949 8.46199 0.444932 8.16644 0.479188L2.91644 0.479188C2.62089 0.444932 2.32142 0.477949 2.04043 0.575769C1.75944 0.673589 1.50421 0.83368 1.29382 1.04407C1.08344 1.25445 0.923345 1.50968 0.825525 1.79068C0.727705 2.07167 0.694688 2.37114 0.728944 2.66669L0.728944 7.33335C0.694688 7.62891 0.727705 7.92838 0.825525 8.20937C0.923345 8.49036 1.08344 8.74559 1.29382 8.95598C1.50421 9.16636 1.75944 9.32645 2.04043 9.42427C2.32142 9.52209 2.62089 9.55511 2.91644 9.52085L8.16644 9.52085C8.46199 9.55511 8.76147 9.52209 9.04246 9.42427C9.32345 9.32645 9.57868 9.16636 9.78907 8.95598C9.99945 8.74559 10.1595 8.49036 10.2574 8.20937C10.3552 7.92838 10.3882 7.62891 10.3539 7.33335L10.3539 7.07727L11.849 8.27311C12.0033 8.3977 12.1956 8.46564 12.3939 8.4656C12.5257 8.46541 12.6559 8.43572 12.7748 8.37869C12.9238 8.30773 13.0495 8.19585 13.1373 8.05609C13.2251 7.91634 13.2714 7.75448 13.2706 7.58944L13.2706 2.4106C13.2714 2.24556 13.2251 2.08371 13.1373 1.94395C13.0495 1.8042 12.9238 1.69231 12.7748 1.62135ZM9.47894 7.33335C9.47894 8.25327 9.08636 8.64585 8.16644 8.64585L2.91644 8.64585C1.99653 8.64585 1.60394 8.25327 1.60394 7.33335L1.60394 2.66669C1.60394 1.74677 1.99653 1.35419 2.91644 1.35419L8.16644 1.35419C9.08636 1.35419 9.47894 1.74677 9.47894 2.66669L9.47894 7.33335ZM12.3956 7.59002L10.3539 5.95669L10.3539 4.04335L12.3956 2.41002L12.3956 7.59002Z" fill="#525252"/>
</svg>
