<svg width="16" height="16" viewBox="0 0 16 16" fill="none" xmlns="http://www.w3.org/2000/svg">
<path d="M4.63232 13.8513C5.62344 14.4229 6.7734 14.75 7.99973 14.75C11.7277 14.75 14.75 11.7279 14.75 8C14.75 4.27208 11.7279 1.25 8 1.25C4.27208 1.25 1.25 4.27208 1.25 8C1.25 9.22634 1.57703 10.3763 2.14864 11.3674L2.15086 11.3712C2.20586 11.4666 2.23359 11.5147 2.24616 11.5601C2.258 11.603 2.26131 11.6415 2.25828 11.6859C2.25502 11.7336 2.23895 11.783 2.20601 11.8818L1.62939 13.6117L1.62867 13.614C1.50701 13.9789 1.44618 14.1614 1.48954 14.283C1.52734 14.389 1.61126 14.4727 1.71729 14.5105C1.83861 14.5538 2.02028 14.4932 2.38366 14.3721L2.38818 14.3704L4.11804 13.7938C4.21653 13.761 4.2666 13.7443 4.31419 13.7411C4.35856 13.7381 4.39683 13.7421 4.4397 13.7539C4.48526 13.7665 4.53338 13.7942 4.62923 13.8495L4.63232 13.8513Z" stroke="#918686" stroke-width="1.5" stroke-linecap="round" stroke-linejoin="round"/>
</svg>
