<svg width="16" height="16" viewBox="0 0 16 16" fill="none" xmlns="http://www.w3.org/2000/svg">
<path d="M11 4.99999V2.37548C11 1.75168 11 1.43978 10.8686 1.2481C10.7538 1.08063 10.576 0.966865 10.3758 0.932803C10.1467 0.893817 9.86352 1.02452 9.29713 1.28593L2.64426 4.35649C2.13913 4.58963 1.88656 4.70619 1.70158 4.88698C1.53804 5.04681 1.41321 5.24191 1.33663 5.45737C1.25 5.70108 1.25 5.97925 1.25 6.53559V10.25M11.375 9.87499H11.3825M1.25 7.39999L1.25 12.35C1.25 13.1901 1.25 13.6101 1.41349 13.931C1.5573 14.2132 1.78677 14.4427 2.06901 14.5865C2.38988 14.75 2.80992 14.75 3.65 14.75H12.35C13.1901 14.75 13.6101 14.75 13.931 14.5865C14.2132 14.4427 14.4427 14.2132 14.5865 13.931C14.75 13.6101 14.75 13.1901 14.75 12.35V7.39999C14.75 6.55992 14.75 6.13988 14.5865 5.81901C14.4427 5.53677 14.2132 5.30729 13.931 5.16348C13.6101 4.99999 13.1901 4.99999 12.35 4.99999L3.65 4.99999C2.80992 4.99999 2.38988 4.99999 2.06901 5.16348C1.78677 5.30729 1.5573 5.53676 1.41349 5.81901C1.25 6.13987 1.25 6.55991 1.25 7.39999ZM11.75 9.87499C11.75 10.0821 11.5821 10.25 11.375 10.25C11.1679 10.25 11 10.0821 11 9.87499C11 9.66789 11.1679 9.49999 11.375 9.49999C11.5821 9.49999 11.75 9.66789 11.75 9.87499Z" stroke="#FF6600" stroke-width="1.5" stroke-linecap="round" stroke-linejoin="round"/>
</svg>
