<svg width="200" height="224" viewBox="0 0 200 224" fill="none" xmlns="http://www.w3.org/2000/svg">
<path d="M8.9515 142.547L13.6093 137.889C15.1122 136.386 15.9583 134.348 15.9583 132.222V87.7083C15.9583 41.4776 53.4359 4.00011 99.6667 4C145.898 3.99989 183.375 41.4774 183.375 87.7083V132.222C183.375 134.347 184.219 136.386 185.722 137.889L190.38 142.547C191.803 143.97 192.524 144.691 193.092 145.482C194.166 146.978 194.872 148.701 195.17 150.519C195.328 151.481 195.33 152.489 195.33 154.507C195.33 159.117 195.33 161.423 194.703 163.282C193.509 166.82 190.741 169.598 187.203 170.792C185.351 171.417 183.052 171.417 178.478 171.417H135.542V183.375C135.542 203.188 119.48 219.25 99.6667 219.25C79.8535 219.25 63.7917 203.188 63.7917 183.375V171.417H20.8559C16.2814 171.417 13.9919 171.417 12.1396 170.792C8.60154 169.598 5.82066 166.82 4.62724 163.282C4 161.422 4 159.118 4 154.507C4 152.489 4 151.481 4.15785 150.519C4.45616 148.701 5.1678 146.978 6.24219 145.482C6.81071 144.69 7.52481 143.973 8.9515 142.547Z" fill="#4C2249"/>
<path d="M135.542 171.417V183.375C135.542 203.188 119.48 219.25 99.6667 219.25C79.8535 219.25 63.7917 203.188 63.7917 183.375V171.417M135.542 171.417H63.7917M135.542 171.417H178.478C183.052 171.417 185.351 171.417 187.203 170.792C190.741 169.598 193.509 166.82 194.703 163.282C195.33 161.423 195.33 159.117 195.33 154.507C195.33 152.489 195.328 151.481 195.17 150.519C194.872 148.701 194.166 146.978 193.092 145.482C192.524 144.691 191.803 143.97 190.38 142.547L185.722 137.889C184.219 136.386 183.375 134.347 183.375 132.222V87.7083C183.375 41.4774 145.898 3.99989 99.6667 4C53.4359 4.00011 15.9583 41.4776 15.9583 87.7083V132.222C15.9583 134.348 15.1122 136.386 13.6093 137.889L8.9515 142.547C7.52481 143.973 6.81071 144.69 6.24219 145.482C5.1678 146.978 4.45616 148.701 4.15785 150.519C4 151.481 4 152.489 4 154.507C4 159.118 4 161.422 4.62724 163.282C5.82066 166.82 8.60154 169.598 12.1396 170.792C13.9919 171.417 16.2814 171.417 20.8559 171.417H63.7917" stroke="#FFBA8E" stroke-width="8" stroke-linecap="round" stroke-linejoin="round"/>
</svg>
