<svg width="194" height="194" viewBox="0 0 194 194" fill="none" xmlns="http://www.w3.org/2000/svg">
<path d="M58.4899 66.9682C65.4478 81.4601 74.9329 95.0425 86.9452 107.055C98.9574 119.067 112.54 128.552 127.032 135.51C128.278 136.109 128.902 136.408 129.69 136.638C132.493 137.455 135.935 136.868 138.308 135.168C138.976 134.69 139.548 134.119 140.69 132.976C144.185 129.481 145.933 127.733 147.69 126.591C154.317 122.282 162.86 122.282 169.487 126.591C171.245 127.733 172.992 129.481 176.487 132.976L178.435 134.924C183.748 140.237 186.405 142.893 187.848 145.746C190.717 151.42 190.717 158.121 187.848 163.795C186.405 166.648 183.748 169.304 178.435 174.617L176.859 176.193C171.565 181.488 168.917 184.135 165.318 186.157C161.324 188.4 155.121 190.014 150.54 190C146.412 189.988 143.591 189.187 137.948 187.585C107.623 178.978 79.0075 162.738 55.1347 138.865C31.2619 114.992 15.0219 86.3773 6.41477 56.0522C4.81317 50.4094 4.01236 47.588 4.00009 43.4597C3.98645 38.8789 5.5996 32.6758 7.84315 28.6819C9.86503 25.0826 12.5124 22.4353 17.807 17.1406L19.3829 15.5647C24.6958 10.2518 27.3522 7.59542 30.2052 6.1524C35.8792 3.28254 42.5798 3.28254 48.2538 6.15239C51.1067 7.59541 53.7632 10.2518 59.076 15.5647L61.0242 17.5128C64.5192 21.0079 66.2667 22.7554 67.4092 24.5127C71.7179 31.1396 71.7179 39.6829 67.4092 46.3099C66.2667 48.0671 64.5192 49.8147 61.0242 53.3097C59.8814 54.4525 59.31 55.0239 58.8317 55.6918C57.1321 58.0654 56.5453 61.507 57.3623 64.3097C57.5922 65.0984 57.8914 65.7216 58.4899 66.9682Z" fill="#4C2249" stroke="#FFBA8E" stroke-width="8" stroke-linecap="round" stroke-linejoin="round"/>
</svg>
