<svg width="182" height="182" viewBox="0 0 182 182" fill="none" xmlns="http://www.w3.org/2000/svg">
<path d="M47.4065 165.717C60.1258 173.053 74.8836 177.25 90.6216 177.25C138.463 177.25 177.25 138.467 177.25 90.625C177.25 42.7833 138.467 4 90.625 4C42.7833 4 4 42.7833 4 90.625C4 106.363 8.19692 121.121 15.5326 133.84L15.561 133.889C16.2669 135.113 16.6228 135.73 16.784 136.313C16.9361 136.864 16.9785 137.358 16.9396 137.928C16.8978 138.539 16.6915 139.174 16.2688 140.442L8.8689 162.642L8.85958 162.671C7.29828 167.355 6.51762 169.697 7.07407 171.257C7.55926 172.618 8.63622 173.692 9.99683 174.177C11.5539 174.732 13.8853 173.955 18.5486 172.4L18.6067 172.379L40.8065 164.979C42.0705 164.558 42.7131 164.344 43.3238 164.302C43.8932 164.263 44.3843 164.315 44.9344 164.467C45.5192 164.628 46.1367 164.985 47.3667 165.694L47.4065 165.717Z" fill="#4C2249" stroke="#FFBA8E" stroke-width="8" stroke-linecap="round" stroke-linejoin="round"/>
</svg>
