<svg width="14" height="14" viewBox="0 0 14 14" fill="none" xmlns="http://www.w3.org/2000/svg">
<path d="M3.55513 6.54997C3.51887 6.3163 3.50006 6.07692 3.50006 5.83317C3.50006 3.25584 5.60314 1.1665 8.19743 1.1665C10.7917 1.1665 12.8948 3.25584 12.8948 5.83317C12.8948 6.41538 12.7875 6.97269 12.5914 7.48663C12.5507 7.59337 12.5303 7.64674 12.5211 7.68841C12.5119 7.7297 12.5084 7.75874 12.5074 7.80102C12.5064 7.84369 12.5122 7.89069 12.5238 7.98469L12.7586 9.89231C12.784 10.0988 12.7967 10.2021 12.7624 10.2771C12.7323 10.3429 12.6788 10.3951 12.6124 10.4237C12.5365 10.4563 12.4336 10.4412 12.2277 10.4111L10.3697 10.1387C10.2727 10.1245 10.2241 10.1174 10.18 10.1176C10.1363 10.1179 10.106 10.1211 10.0633 10.1301C10.02 10.1392 9.96479 10.1599 9.85432 10.2012C9.33906 10.3942 8.78066 10.4998 8.19743 10.4998C7.95348 10.4998 7.71388 10.4814 7.47997 10.4457M4.45184 12.8332C6.18136 12.8332 7.58341 11.3968 7.58341 9.62484C7.58341 7.85292 6.18136 6.4165 4.45184 6.4165C2.72231 6.4165 1.32026 7.85292 1.32026 9.62484C1.32026 9.98102 1.37691 10.3236 1.48148 10.6438C1.52569 10.7791 1.54779 10.8467 1.55505 10.893C1.56262 10.9412 1.56395 10.9683 1.56113 11.0171C1.55843 11.0638 1.54674 11.1166 1.52337 11.2222L1.16675 12.8332L2.91372 12.5946C3.00907 12.5816 3.05675 12.5751 3.09838 12.5753C3.14222 12.5756 3.16548 12.578 3.20848 12.5866C3.24931 12.5947 3.31001 12.6161 3.43141 12.659C3.75126 12.7719 4.09456 12.8332 4.45184 12.8332Z" stroke="#FF6600" stroke-linecap="round" stroke-linejoin="round"/>
</svg>
