<svg width="22" height="18" viewBox="0 0 22 18" fill="none" xmlns="http://www.w3.org/2000/svg">
<path fill-rule="evenodd" clip-rule="evenodd" d="M11.2731 0.235102C9.56751 0.178302 7.84431 0.643635 6.35658 1.6367C4.68564 2.75324 3.51791 4.40203 2.98004 6.24523C2.83151 6.2271 2.65364 6.2351 2.44244 6.29484C1.65391 6.51857 1.06084 7.1647 0.794175 7.73377C0.448309 8.47537 0.302442 9.45617 0.456308 10.4687C0.609108 11.478 1.03551 12.31 1.56884 12.8266C2.10378 13.3434 2.70778 13.5114 3.30778 13.3852C4.20111 13.1946 4.64404 13.0519 4.51898 12.2196L3.91338 8.18524C4.03551 6.00177 5.16591 3.9463 7.05658 2.6823C9.58724 0.991902 12.9051 1.10017 15.319 2.95324C16.9982 4.2407 17.9731 6.16977 18.0856 8.19484L17.6622 11.017C16.7176 13.6018 14.376 15.3922 11.6664 15.6463H9.86218C9.39658 15.6463 9.02164 16.0212 9.02164 16.4863V16.9295C9.02164 17.3948 9.39658 17.7698 9.86218 17.7698H12.1371C12.6024 17.7698 12.9758 17.3948 12.9758 16.9295V16.6978C15.019 16.1991 16.8024 14.9434 17.9638 13.1922L18.6926 13.3855C19.2856 13.5394 19.8968 13.3434 20.4315 12.8268C20.9648 12.31 21.391 11.4783 21.544 10.469C21.6984 9.45644 21.5483 8.47723 21.2064 7.73404C20.8632 6.99084 20.352 6.51884 19.7619 6.3495C19.5147 6.2783 19.2464 6.25217 19.0163 6.24523C18.5299 4.57857 17.5286 3.06284 16.0854 1.95617C14.6664 0.867369 12.9787 0.291102 11.2731 0.235102Z" fill="#FFBA8E"/>
<path fill-rule="evenodd" clip-rule="evenodd" d="M13.9357 7.49326C14.537 7.49326 15.0245 7.98073 15.0258 8.58366C15.0245 9.18499 14.537 9.67379 13.9357 9.67379C13.3328 9.67379 12.844 9.18499 12.844 8.58366C12.844 7.98099 13.333 7.49326 13.9357 7.49326ZM10.9997 7.49326C11.6024 7.49326 12.0898 7.98073 12.0898 8.58366C12.0898 9.18499 11.6024 9.67379 10.9997 9.67379C10.3965 9.67379 9.90903 9.18499 9.90903 8.58366C9.90903 7.98099 10.3965 7.49326 10.9997 7.49326ZM8.06476 7.49326C8.6661 7.49326 9.1549 7.98073 9.1549 8.58366C9.1549 9.18499 8.6661 9.67379 8.06476 9.67379C7.4621 9.67379 6.97436 9.18499 6.97436 8.58366C6.97436 7.98099 7.4621 7.49326 8.06476 7.49326ZM10.9997 2.81006C7.80236 2.81006 5.22583 5.30179 5.22583 8.58366C5.22583 10.1599 5.82183 11.553 6.79276 12.5751L6.44823 14.1197C6.33463 14.6279 6.68716 14.9698 7.14396 14.7154L8.65223 13.8741C9.36903 14.1853 10.1618 14.3573 10.9997 14.3573C14.1981 14.3573 16.773 11.8671 16.773 8.58366C16.773 5.30179 14.1981 2.81006 10.9997 2.81006Z" fill="#4C2249"/>
</svg>
