<svg width="18" height="16" viewBox="0 0 18 16" fill="none" xmlns="http://www.w3.org/2000/svg">
<path d="M17.5921 14.5575C17.6391 14.8287 17.4693 15.0853 17.203 15.1503H13.2812C13.2611 14.9323 13.2306 14.6795 13.1842 14.4185C12.9713 13.2079 12.4767 12.1114 11.7749 11.1924C12.2479 11.0201 12.7545 10.9286 13.2756 10.9286C15.4012 10.9286 17.2181 12.4543 17.5921 14.5575Z" fill="#4C2249" stroke="#FFBA8E" stroke-width="0.8"/>
<path d="M16.08 6.40872C16.08 7.95754 14.8245 9.2131 13.2757 9.2131C11.7269 9.2131 10.4713 7.95754 10.4713 6.40872C10.4713 4.85991 11.7269 3.60435 13.2757 3.60435C14.8245 3.60435 16.08 4.85991 16.08 6.40872Z" fill="#4C2249" stroke="#FFBA8E" stroke-width="0.8"/>
<path d="M9.67137 4.11991C9.67137 6.17436 8.00591 7.83983 5.95146 7.83983C3.897 7.83983 2.23154 6.17436 2.23154 4.11991C2.23154 2.06546 3.897 0.4 5.95146 0.4C8.00591 0.4 9.67137 2.06546 9.67137 4.11991Z" fill="#4C2249" stroke="#FFBA8E" stroke-width="0.8"/>
<path d="M5.95136 10.013C8.67605 10.013 11.01 11.9878 11.4947 14.7185C11.5425 14.9894 11.3702 15.2477 11.1061 15.3101H0.796353C0.532417 15.2473 0.360275 14.9888 0.40801 14.7185L0.0141077 14.6489L0.407956 14.7188C0.892523 11.9879 3.22654 10.013 5.95136 10.013Z" fill="#4C2249" stroke="#FFBA8E" stroke-width="0.8"/>
</svg>
