<svg width="156" height="158" viewBox="0 0 156 158" fill="none" xmlns="http://www.w3.org/2000/svg">
<path d="M42.5 79.1953H151.206M151.206 79.1953L124.029 52.125M151.206 79.1953L124.029 106.266" stroke="#FFBA8E" stroke-width="8" stroke-linecap="round" stroke-linejoin="round"/>
<path d="M103.647 40.0938V22.0469C103.647 17.2605 101.738 12.6703 98.3405 9.28581C94.9428 5.90136 90.3345 4 85.5294 4H22.1176C17.3125 4 12.7043 5.90136 9.30654 9.28581C5.90882 12.6703 4 17.2605 4 22.0469V130.328C4 135.114 5.90882 139.705 9.30654 143.089C12.7043 146.474 17.3125 148.375 22.1176 148.375H85.5294C90.3345 148.375 94.9428 146.474 98.3405 143.089C101.738 139.705 103.647 135.114 103.647 130.328V112.281" stroke="#201F1F" stroke-width="8" stroke-linecap="round" stroke-linejoin="round"/>
<path d="M4 8.81323L80.4744 18.3719C80.7747 18.4094 81 18.6647 81 18.9673V157.268C81 157.647 80.6535 157.931 80.2822 157.856L4 142.583V8.81323Z" fill="#4C2249"/>
</svg>
