<svg width="217" height="222" viewBox="0 0 217 222" fill="none" xmlns="http://www.w3.org/2000/svg">
<path d="M175.844 218C188.85 218 195.353 218 200.32 215.469C204.69 213.243 208.243 209.691 210.469 205.321C213 200.354 213 193.852 213 180.847V104.219C213 91.2147 213 84.7123 210.469 79.7451C208.243 75.3759 204.69 71.8236 200.32 69.5974C195.353 67.0665 188.85 67.0665 175.844 67.0665L41.1556 67.0665C28.1499 67.0665 21.6471 67.0665 16.6796 69.5974C12.31 71.8236 8.75747 75.3759 6.53107 79.7451C4 84.7123 4 91.2146 4 104.219L4 180.847C4 193.852 4 200.354 6.53107 205.321C8.75746 209.691 12.31 213.243 16.6796 215.469C21.6471 218 28.1499 218 41.1556 218H175.844Z" fill="#4C2249"/>
<path d="M166.556 142.533C166.556 145.739 163.956 148.338 160.75 148.338C157.544 148.338 154.944 145.739 154.944 142.533C154.944 139.327 157.544 136.728 160.75 136.728C163.956 136.728 166.556 139.327 166.556 142.533Z" fill="#4C2249"/>
<path d="M154.944 67.0665V26.4381C154.944 16.7814 154.944 11.9531 152.91 8.9858C151.133 6.39332 148.38 4.63222 145.281 4.10493C141.734 3.50141 137.35 5.52477 128.581 9.57151L25.5852 57.1048C17.765 60.7138 13.8549 62.5184 10.9911 65.317C8.45934 67.7912 6.52677 70.8114 5.34114 74.1468C4 77.9196 4 82.2258 4 90.8381V148.338M160.75 142.533H160.866M4 104.219L4 180.847C4 193.852 4 200.354 6.53107 205.321C8.75746 209.691 12.31 213.243 16.6796 215.469C21.6471 218 28.1499 218 41.1556 218H175.844C188.85 218 195.353 218 200.32 215.469C204.69 213.243 208.243 209.691 210.469 205.321C213 200.354 213 193.852 213 180.847V104.219C213 91.2147 213 84.7123 210.469 79.7451C208.243 75.3759 204.69 71.8236 200.32 69.5974C195.353 67.0665 188.85 67.0665 175.844 67.0665L41.1556 67.0665C28.1499 67.0665 21.6471 67.0665 16.6796 69.5974C12.31 71.8236 8.75747 75.3759 6.53107 79.7451C4 84.7123 4 91.2146 4 104.219ZM166.556 142.533C166.556 145.739 163.956 148.338 160.75 148.338C157.544 148.338 154.944 145.739 154.944 142.533C154.944 139.327 157.544 136.728 160.75 136.728C163.956 136.728 166.556 139.327 166.556 142.533Z" stroke="#FFBA8E" stroke-width="8" stroke-linecap="round" stroke-linejoin="round"/>
</svg>
