<svg width="112" height="114" viewBox="0 0 112 114" fill="none" xmlns="http://www.w3.org/2000/svg">
<path d="M88.8667 109C95.2139 109 98.3876 109 100.812 107.77C102.944 106.688 104.678 104.962 105.765 102.838C107 100.424 107 97.2645 107 90.9444V53.7047C107 47.3847 107 44.2247 105.765 41.8107C104.678 39.6874 102.944 37.961 100.812 36.8791C98.3876 35.6491 95.2139 35.6491 88.8667 35.6491L23.1333 35.6491C16.7861 35.6491 13.6124 35.6491 11.1881 36.8791C9.05561 37.961 7.32183 39.6874 6.23526 41.8107C5 44.2247 5 47.3847 5 53.7047L5 90.9444C5 97.2645 5 100.424 6.23526 102.838C7.32182 104.962 9.0556 106.688 11.1881 107.77C13.6124 109 16.7861 109 23.1333 109H88.8667Z" fill="#FFE3D1"/>
<path d="M84.3333 72.3246C84.3333 73.8827 83.0648 75.1458 81.5 75.1458C79.9352 75.1458 78.6667 73.8827 78.6667 72.3246C78.6667 70.7665 79.9352 69.5034 81.5 69.5034C83.0648 69.5034 84.3333 70.7665 84.3333 72.3246Z" fill="#FFE3D1"/>
<path d="M78.6667 35.6491V15.9045C78.6667 11.2115 78.6667 8.86504 77.6738 7.42301C76.8064 6.16311 75.463 5.30725 73.9506 5.05099C72.2196 4.75769 70.0799 5.74101 65.8005 7.70765L15.5344 30.8079C11.7179 32.5619 9.80959 33.4388 8.41193 34.7989C7.17633 36.0013 6.23316 37.4691 5.65453 39.09C5 40.9236 5 43.0163 5 47.2017V75.1458M81.5 72.3246H81.5567M5 53.7047L5 90.9444C5 97.2645 5 100.424 6.23526 102.838C7.32182 104.962 9.0556 106.688 11.1881 107.77C13.6124 109 16.7861 109 23.1333 109H88.8667C95.2139 109 98.3876 109 100.812 107.77C102.944 106.688 104.678 104.962 105.765 102.838C107 100.424 107 97.2645 107 90.9444V53.7047C107 47.3847 107 44.2247 105.765 41.8107C104.678 39.6874 102.944 37.961 100.812 36.8791C98.3876 35.6491 95.2139 35.6491 88.8667 35.6491L23.1333 35.6491C16.7861 35.6491 13.6124 35.6491 11.1881 36.8791C9.05561 37.961 7.32183 39.6874 6.23526 41.8107C5 44.2247 5 47.3847 5 53.7047ZM84.3333 72.3246C84.3333 73.8827 83.0648 75.1458 81.5 75.1458C79.9352 75.1458 78.6667 73.8827 78.6667 72.3246C78.6667 70.7665 79.9352 69.5034 81.5 69.5034C83.0648 69.5034 84.3333 70.7665 84.3333 72.3246Z" stroke="#918686" stroke-width="10" stroke-linecap="round" stroke-linejoin="round"/>
</svg>
