<svg width="187" height="208" viewBox="0 0 187 208" fill="none" xmlns="http://www.w3.org/2000/svg">
<path d="M124.815 156.222V166.667C124.815 183.972 110.795 198 93.5015 198C76.2077 198 62.1884 183.972 62.1884 166.667V156.222M124.815 156.222H62.1884M124.815 156.222H162.291C166.284 156.222 168.29 156.222 169.906 155.677C172.994 154.634 175.411 152.208 176.452 149.118C177 147.494 177 145.48 177 141.453C177 139.691 176.998 138.81 176.86 137.97C176.6 136.382 175.984 134.877 175.046 133.57C174.551 132.88 173.921 132.25 172.68 131.008L168.614 126.939C167.302 125.626 166.565 123.846 166.565 121.99V83.1111C166.565 42.7329 133.854 9.9999 93.5015 10C53.1495 10.0001 20.4377 42.733 20.4377 83.1111V121.99C20.4377 123.846 19.6992 125.626 18.3874 126.939L14.3219 131.007C13.0766 132.253 12.4533 132.879 11.9571 133.571C11.0193 134.878 10.3982 136.382 10.1378 137.97C10 138.81 10 139.691 10 141.453C10 145.48 10 147.493 10.5475 149.117C11.5891 152.207 14.0164 154.634 17.1046 155.677C18.7213 156.222 20.7197 156.222 24.7125 156.222H62.1884" stroke="#201F1F" stroke-width="20" stroke-linecap="round" stroke-linejoin="round"/>
</svg>
