<?xml version="1.0" encoding="UTF-8"?>
<!DOCTYPE svg PUBLIC "-//W3C//DTD SVG 1.1//EN" "http://www.w3.org/Graphics/SVG/1.1/DTD/svg11.dtd">
<!-- Creator: CorelDRAW (Evaluation Version) -->
<svg xmlns="http://www.w3.org/2000/svg" xml:space="preserve" width="5.94294in" height="5.94294in" version="1.1" style="shape-rendering:geometricPrecision; text-rendering:geometricPrecision; image-rendering:optimizeQuality; fill-rule:evenodd; clip-rule:evenodd"
viewBox="0 0 6243.8 6243.8"
 xmlns:xlink="http://www.w3.org/1999/xlink"
 xmlns:xodm="http://www.corel.com/coreldraw/odm/2003">
 <defs>
  <style type="text/css">
   <![CDATA[
    .str1 {stroke:#4E234E;stroke-width:43.77;stroke-miterlimit:2.61313}
    .str0 {stroke:#FFBA8E;stroke-width:29.19;stroke-miterlimit:2.61313}
    .str2 {stroke:#FFF0E6;stroke-width:7.3;stroke-miterlimit:2.61313}
    .fil2 {fill:none}
    .fil1 {fill:#4E234E}
    .fil0 {fill:#FFF0E6}
    .fil3 {fill:#FFF0E6}
   ]]>
  </style>
 </defs>
 <g id="Layer_x0020_1">
  <metadata id="CorelCorpID_0Corel-Layer"/>
  <g id="_2826827572016">
   <circle class="fil0" cx="3121.9" cy="3121.9" r="3121.9"/>
   <g>
    <path class="fil1" d="M1456.37 1082.1l-1.32 61.5c-28.82,4.09 -141.04,-24.92 -181.71,-29.06l-1.43 60.34c-1.26,24.81 5.28,107.34 -3.76,121.82l-15.31 -2.27c0.89,0.92 2.32,0.89 2.8,2.65 0.47,1.7 2.04,1.96 2.66,2.59 0.58,0.58 1.78,1.74 2.47,2.44 13.98,14.3 29.01,39.05 51.56,53.25 7.66,4.83 14.97,5.14 16.36,13.9 5.05,4.11 -6.13,7.05 3.59,2.39 5.91,-2.83 -0.2,3.97 4.2,-4.83l-0.26 -177.21c43.53,5.44 150.73,33.96 184.46,31.54l-0.66 -53.86 -0.34 -128.4c-0.59,1.16 -1.1,2.62 -1.43,3.64l-4.69 83.62c-10.21,-15.16 -36.45,-39.32 -57.21,-44.05z"/>
    <path class="fil1" d="M1397.79 1459.53c-3.24,-5.31 9.15,-3.89 -10.36,-4.43 3.73,6.94 -5.72,7.56 10.36,4.43 7.74,14.41 12.22,14.35 28.57,22.69 15.2,7.75 17.28,13.08 38.95,13.31 -5.95,15.35 -4,14.78 -4,32.14l-6.7 2.34c3.52,3.16 -5.52,5.02 13.1,4.07l-1.14 -182.76 135.45 23.44c-3.05,-15.09 -1.44,-21.77 -2.65,-36.17 -2.26,-26.87 -4.57,-8.65 -5.87,-60.19 -0.52,-20.86 -1.29,-22.43 -7.68,-31.04l0.2 59.03 -182.7 -33.44c0.05,30.39 8.95,172.17 -5.53,186.59z"/>
    <path class="fil1" d="M1328.7 1369.26c-1.39,-8.76 -8.7,-9.07 -16.36,-13.9 -22.56,-14.2 -37.58,-38.95 -51.56,-53.25 -0.69,-0.7 -1.89,-1.86 -2.47,-2.44 -0.62,-0.62 -2.2,-0.89 -2.66,-2.59 -0.48,-1.76 -1.91,-1.72 -2.8,-2.65 -188.59,-31.18 -164.61,-46.4 -164.31,24.12 0.35,80.38 -13.78,84.11 33.5,150.07 14.07,19.63 10.58,18.38 27.49,32.78l0.95 -159.04c38.41,4.86 151.85,30.52 178.22,26.89z"/>
    <path class="fil1" d="M1585.74 1183.37l0.07 63.99c6.38,8.62 7.16,10.18 7.68,31.04 1.29,51.54 3.6,33.32 5.87,60.19 1.21,14.4 -0.4,21.08 2.65,36.17l47.55 8.95 -0.43 -12.38 1.29 -174.01 102.09 19.19 -16.69 -67.2 -149.91 -25.41 -0.16 59.46z"/>
    <path class="fil1" d="M1454.6 1530.01l6.7 -2.34c0,-17.36 -1.94,-16.79 4,-32.14 -21.67,-0.23 -23.75,-5.56 -38.95,-13.31 -16.35,-8.34 -20.82,-8.28 -28.57,-22.69 -16.09,3.14 -6.63,2.52 -10.36,-4.43l-170.08 -29.65 4.24 137.23c16,11.04 40.86,26.46 61.33,31.9l0.02 -91.41c42.96,5.23 138.62,29.83 171.66,26.83z"/>
    <path class="fil1" d="M1456.37 1082.1c20.76,4.74 47,28.9 57.21,44.05l4.69 -83.62c0.32,-1.02 0.84,-2.48 1.43,-3.64l170 30.35c-15.98,-27.51 -53.29,-72.93 -88.09,-80.11 -46.43,-9.58 -97.5,-17.86 -144.5,-25.15l-0.74 118.11z"/>
   </g>
   <g>
    <path class="fil1" d="M2677.61 491.16c1.34,-31.87 26.58,-60.27 61.1,-56.95 72.49,6.97 72.63,129.82 -7.13,123.05 -29.81,-2.54 -55.36,-32.88 -53.97,-66.09zm-142.71 -16.5l0.79 47.08 2.22 12.61c23.26,0.1 42.54,2.14 55.77,12.36 -7.57,-26.92 5.77,-28.73 5.8,-28.75 12.74,7.78 3.57,0.18 8.78,11.26 6.94,12.58 34.79,42.79 46.18,55.18 14.33,15.59 36.53,39.08 47.02,54.81l84.61 -17.26 -16.22 261.51 64.66 -13.51 17.34 -210.01 8.57 -115.26 -21.28 -3.47c-0.69,-0.12 -2.15,-0.23 -3.14,-0.63 15.5,-78.73 -17.56,-129.13 -66.72,-153.39 -29.29,-14.45 -64.73,-10.71 -92.91,3.95 -42.31,22.01 -29.62,38.32 -51.25,62.17 -8.98,-10.94 -12.54,-15.78 -21.53,-25.74l-65.66 13.72 -3.04 33.38z"/>
    <path class="fil1" d="M2578.62 830.71l-2.94 -17.68c-16.66,6.4 -36.04,4.23 -58.72,4.11 -0.23,3.29 -0.81,13.83 -1.47,16.84l-6.91 17.13 -200.01 -351.4 -79.83 14.8c-15.25,22.55 -20.99,59.92 -21.05,90.32l70.68 -17.3c10.94,10.08 196.77,333.64 208.35,360.75l88.89 -20.27 3.01 -97.3z"/>
    <path class="fil1" d="M2516.96 817.14c22.68,0.12 42.07,2.29 58.72,-4.11l2.94 17.68 15.7 -229.59c1.22,-13.77 1.05,-26.08 1.45,-39.97 0.43,-14.8 1.78,-19.51 3.36,-36.7l9.12 4.75c-5.21,-11.09 3.97,-3.49 -8.78,-11.26 -0.02,0.02 -13.37,1.84 -5.8,28.75 -13.23,-10.22 -32.51,-12.26 -55.77,-12.36l-2.22 -12.61c-9.22,9.9 -9.79,130.89 -10.65,146.61 -2.57,47.16 -9.34,101 -8.09,148.8z"/>
   </g>
   <path class="fil1" d="M4981.08 1625.15l3.62 -4.29c-9.28,-7.68 -14.32,-3.59 -33.08,-6.47 -11.8,-1.81 -18.43,-4.28 -28.71,-3.9 0.62,6.17 1.88,4.42 -4.64,4.42 -60.67,85.97 51.55,180.37 119.77,122.88 38.35,-32.31 116.4,-127.72 148.88,-151.08 15.84,10.63 23.83,23.39 42.05,33.01l53.49 -186.26c-22.42,4.91 -46.81,18.81 -71.06,28.54l-105.55 47.1c12.36,10.63 28,21.86 34.63,36.88 -18.29,26.11 -58.99,63.19 -82,88.91l-38.18 45.39 -36.74 6.54c-9.24,-3.39 -11.37,-5.76 -14.85,-16.57 -8.38,-25.95 3.66,-32.58 12.38,-45.11z"/>
   <path class="fil1" d="M4920.65 1251.1c16.13,-1.03 32.18,-8.44 49.42,-10.05 9.61,-0.9 22.18,0.57 30.73,-1.02 15.81,-2.95 6.91,-4.44 22.24,-10.91 35.68,-1.7 50.03,13.22 42.4,46.46 3.33,9.18 1.91,5.22 8.59,10.82 5.92,4.97 6.16,3.66 11.76,8.08 12.96,10.23 7.43,11.82 25.45,17.59 24.87,-0.71 31.42,0.74 41.25,18.31 3.45,5.03 2.1,0.89 3.64,9.68 1.53,8.79 0.38,6.68 0.73,14.97 0.6,14.51 0.36,9.23 3.76,23.42 5.92,24.65 -0.57,37.73 7.55,46.56 25.59,-14.69 53.94,-60.32 49.21,-109.56 -5.05,-52.68 -44.96,-57.83 -73.68,-66.81 -0.99,-0.31 -2.2,-0.72 -3.08,-1.03 -0.88,-0.3 -2.3,-0.93 -3.01,-1.19 -0.71,-0.26 -2.44,-0.06 -2.95,-1.34 -0.5,-1.27 -2,-0.83 -2.9,-1.41 -11.96,-14.23 -5.34,-79.67 -90.36,-79.6 -28,-140.43 -155.74,-64.56 -168.33,-33.14l41.37 32.95c9.64,-5.53 20.6,-19.23 37.37,-16.38 16.63,2.83 23.98,14.8 26.78,33.06 -10.33,23.85 -47.31,49.53 -57.95,70.54z"/>
   <path class="fil1" d="M4817.73 1541.13l-3.72 4.36 -4.12 3.82 -3.89 3.95 -3.32 4.54 -3.81 4.29 -4.13 3.82 -3.14 4.44 -3.49 4.79 -4.06 3.92 -3.54 4.17 -1.93 6.81 3.71 4.13 4.12 3.72 4.67 3.07 4.75 3.52 3.97 3.97 3.97 3.97 3.97 3.99 4.1 3.72 3.93 4.28 -3.93 -4.28 -4.1 -3.72 -3.97 -3.99 -3.97 -3.97 -3.97 -3.97 -4.75 -3.52 -4.67 -3.07 -4.12 -3.72 -3.71 -4.13 1.93 -6.81 3.54 -4.17 4.06 -3.92 3.49 -4.79 3.14 -4.44 4.13 -3.82 3.81 -4.29 3.32 -4.54 3.89 -3.95 4.12 -3.82 3.72 -4.36c12.21,-6.47 14.77,1.57 25.16,12.26 8.72,8.97 14.61,11.7 18.44,23.51l-3.72 4.29 -3.2 4.8 -3.46 4.37 -3.83 4.1 -3.81 3.68 3.81 -3.68 3.83 -4.1 3.46 -4.37 3.2 -4.8 3.72 -4.29c18.98,-12.45 42.62,-40.67 65.21,-65.95l184.7 -198.88c-18.02,-5.77 -12.49,-7.35 -25.45,-17.59 -5.6,-4.43 -5.84,-3.11 -11.76,-8.08 -6.68,-5.6 -5.25,-1.64 -8.59,-10.82 -20.19,12.37 -62.85,65.55 -81.18,86.16l-13.73 14.54c-10.75,12.05 -18.64,21.66 -29.67,33.96 -30.72,34.24 -50.14,46.75 -78.78,83.96l-13.15 15.09c-12.61,11.49 -20.28,13.16 -31.2,31.85z"/>
   <path class="fil1" d="M4922.92 1610.49l-4.64 4.42c6.52,0 5.26,1.75 4.64,-4.42 10.28,-0.38 16.91,2.09 28.71,3.9 18.76,2.88 23.8,-1.21 33.08,6.47l-3.62 4.29 3.62 -4.29c23.45,-17.22 29.41,-29.71 47.66,-47.93 19.42,-19.37 29.29,-29.67 46.18,-48.95 28.2,-32.19 66.5,-65.21 89.63,-98.98 -8.13,-8.83 -1.63,-21.91 -7.55,-46.56 -3.41,-14.18 -3.17,-8.91 -3.76,-23.42 -0.34,-8.29 0.81,-6.18 -0.73,-14.97 -1.53,-8.8 -0.19,-4.65 -3.64,-9.68 1.65,31.65 -4.17,27.96 -20.16,44.77 -17.65,18.56 -203.16,220.82 -209.41,235.35z"/>
   <path class="fil1" d="M4920.65 1251.1l-161.51 175.86 -3.95 4.07 -4.59 3.17 4.59 -3.17 3.95 -4.07c18.44,-12.01 5.26,-2.49 10.27,-0.12 0,10.73 -0.67,24.38 0.67,34.76 1.88,14.46 5.87,16.83 4.39,32.43l-3.28 4.88 -3.23 4.52 -3.82 4.09 -3.82 3.27 3.82 -3.27 3.82 -4.09 3.23 -4.52 3.28 -4.88c28.11,-24.04 37.79,-41.37 64.68,-66.5 11.39,-10.64 19.21,-21.83 29.7,-33.88 10.81,-12.41 20.62,-19.71 31.25,-32.16 20.16,-23.63 40.85,-42.99 60.93,-66.26 11.62,-13.46 17.08,-18.64 31.22,-32.35 11.76,-11.4 19.95,-22.73 30.8,-33.75 -15.33,6.47 -6.43,7.95 -22.24,10.91 -8.55,1.59 -21.12,0.12 -30.73,1.02 -17.24,1.61 -33.29,9.02 -49.42,10.05z"/>
   <path class="fil1" d="M4759.14 1426.95l-3.95 4.07 -4.59 3.17c-12.22,11.89 -21,23.17 -31.78,35.98 -23.9,28.4 -24.81,20.27 -32.1,39.5 11.51,12.57 27.56,28.59 47.29,34.94 6.66,-13.39 16.76,-21.66 26.32,-33.84l3.82 -3.27 3.82 -4.09 3.23 -4.52 3.28 -4.88c1.48,-15.6 -2.51,-17.96 -4.39,-32.43 -1.35,-10.39 -0.67,-24.03 -0.67,-34.76 -5.01,-2.37 8.18,-11.89 -10.27,0.12z"/>
   <path class="fil1" d="M4817.73 1541.13l-3.72 4.36 -4.12 3.82 -3.89 3.95 -3.32 4.54 -3.81 4.29 -4.13 3.82 -3.14 4.44 -3.49 4.79 -4.06 3.92 -3.54 4.17 -1.93 6.81 3.71 4.13 4.12 3.72 4.67 3.07 4.75 3.52 3.97 3.97 3.97 3.97 3.97 3.99 4.1 3.72 3.93 4.28c11.4,-2.92 20.02,-16 27.55,-26.26l3.81 -3.68 3.83 -4.1 3.46 -4.37 3.2 -4.8 3.72 -4.29c-3.83,-11.81 -9.72,-14.54 -18.44,-23.51 -10.39,-10.69 -12.95,-18.72 -25.16,-12.26z"/>
   <path class="fil1" d="M5415.97 2551.25c-22.7,-65.19 -29.5,-115.41 -0.37,-171.69 86.45,-167.01 310.56,-149.35 379.17,-0.43 103.02,223.62 -214.59,402.78 -361.53,206.02 -11.3,-15.14 -10.49,-14.45 -17.27,-33.9zm-35.29 -368.17c-10.6,6.85 -21.62,14.37 -31.52,21.34 -11.16,7.87 -21.22,11.56 -20.14,25.92l149.52 578.36c15.72,8.19 46.5,14.91 68.93,12.69l-27.2 -103.28c114.96,31.98 202.85,6.17 277.77,-64.03 135.97,-127.4 91.63,-390.49 -120.44,-446.52 -95.17,-25.15 -215.92,11.41 -268.29,78.09 -7.59,-25.57 -16.05,-86.45 -28.64,-102.56z"/>
   <path class="fil1" d="M5267.76 2440.95l55.09 210.75c26.7,-2.55 38.82,-3.48 60.21,-10.36 -7.46,-33.1 -49.91,-212.1 -60.41,-226.97l-2.39 12.77c-27.56,2.92 -31.23,7.28 -52.51,13.81z"/>
   <path class="fil1" d="M5322.85 2651.69c4.5,16.54 19.89,86.39 25.75,95.69 6.82,10.82 53.98,38.47 72.77,42.28l-38.31 -148.32c-21.39,6.88 -33.51,7.81 -60.21,10.36z"/>
   <path class="fil1" d="M5267.76 2440.95c21.28,-6.53 24.95,-10.89 52.51,-13.81l2.39 -12.77 -34.75 -141.14c-9.94,10.76 -37.37,53.39 -41.62,71.33 -3.34,14.08 5.09,32.08 9.41,48.93 4.28,16.67 8.76,31.78 12.07,47.47z"/>
   <g>
    <path class="fil1" d="M5403.84 3995.67c-14.44,-2.44 -69.5,-22.45 -78.23,-30.94 -28.28,-27.5 2.18,-52.89 37.18,-53.66 11.66,37.2 26.17,54.74 41.05,84.6zm309.43 -157.74c-4.17,18.89 -4.3,52.68 -0.54,60.75 19.31,8 51.64,18.35 34.66,49.33 -16.91,30.84 -40.73,10.75 -71.14,11.51 -16.73,2.92 -16.68,12.1 -31.42,21.14 -10.7,6.56 -20.83,9.29 -32.4,14.44 35.1,15.88 113.84,18.86 95.1,68.77 -3.39,8.63 -1.24,3.82 -4.87,8.12l-25.4 11.49c-28.35,1.83 -91.01,-25.31 -113.68,-37.6 -73.24,-39.73 -73.26,-62.79 -106.04,-95.42 2.12,-3.1 -11.11,-20.02 11.39,-1.04l1.35 0c-21.24,-25.34 -21.45,-27.15 -22.46,-67.39l-20.05 -6.85c0.52,-21.12 4.67,-32.73 12.17,-47.65 -14.64,-11.99 -46.53,-17.31 -67.23,-23.94l-14.65 47.04c-165.34,-3.74 -117.92,145.94 -52.37,171.86 23.64,9.35 64.15,23.38 86.59,27.59l13.15 -47.94 46.44 41.91c70.59,59.55 194.67,134.9 289.36,87.25 46.29,-23.3 45.8,-55.8 32.01,-110.63 40.57,-37.16 66.72,-47.59 40.05,-119.09 40.23,-22.27 65.94,-64.61 41.19,-120.22 21.28,-22.95 61.88,-43.56 43.51,-102.96 -10.08,-32.58 -44.03,-65.03 -82.53,-70.39 -9.63,12.91 -15.36,33.19 -18.72,51.6 11.57,12.48 43.8,28.59 24.01,55.48 -5,6.79 -16.76,13.68 -28.33,12.56l-163.82 -52.75c-44.87,-14.44 -245.9,-83.23 -272.55,-87.59l-19.59 56.45c98.84,25.85 311.08,101.14 422.75,139.41 23.33,7.99 46.37,27.53 24.45,54.52 -18.94,23.32 -44.32,0.18 -70.39,0.26z"/>
    <path class="fil1" d="M5388.74 3790l323.99 108.68c-3.76,-8.07 -3.63,-41.86 0.54,-60.75 -7.49,-8.42 -0.24,-3.74 -16.22,-9.75l-57.82 -17.69c-23.69,-7.52 -47.62,-15.45 -72.99,-23.45 -49.77,-15.7 -97.99,-30.51 -148.04,-47.9 -2.46,14.83 -6.58,17.26 -14.98,28.56 -6.92,9.3 -8,14.1 -14.48,22.3z"/>
    <path class="fil1" d="M5470.28 3949.42l142.15 45.68c11.57,-5.14 21.7,-7.88 32.4,-14.44 14.74,-9.04 14.7,-18.21 31.42,-21.14 -10.69,-10.22 -95,-33.75 -112.71,-39.62 -32.9,-10.9 -81.97,-31.09 -115.71,-37.88 1.01,40.24 1.21,42.05 22.46,67.39zm-12.74 1.04l11.39 -1.04c-22.5,-18.99 -9.27,-2.06 -11.39,1.04z"/>
    <path class="fil1" d="M5388.74 3790c6.48,-8.2 7.56,-13 14.48,-22.3 8.4,-11.3 12.52,-13.72 14.98,-28.56l-100.89 -31.92c-5.68,10.36 -16.15,38.54 -18.15,54.79l89.58 27.99z"/>
   </g>
   <g>
    <path class="fil1" d="M4736.46 4821.7c8.25,8.38 4.89,-8.43 7.57,8.05 1.65,-17.56 8.84,-25.08 17.41,-37.54 5.68,-8.25 6.34,-8.34 8.83,-16.62 1.39,-4.61 1.15,-6.34 3.06,-12.46 0.36,-1.16 2.42,-4.88 2.67,-6.88 0.24,-1.95 0.91,-2.39 1.55,-3.49 7.01,-55.82 56.68,-102.77 118.9,-102.45 61.52,0.31 110.55,47.13 118.1,101.2 8.33,14.03 -7.74,-14.18 3.44,7.75 3.18,6.24 0.15,1.57 4.16,7.34 41.55,59.8 25.09,52.56 43.51,94.97 36.06,28 85.46,85.96 50.7,156.8 -11.43,23.29 -33.36,45.91 -57.89,55.17 -41.67,15.73 -61.78,-0.32 -95.85,-4.62 -27.53,2.45 -32.61,8.51 -68.68,8.6l9.95 15.5 27.87 23.46c55.4,17.17 87.13,34.88 148.17,6.35 41.69,-19.49 70.57,-46.05 88.64,-91.83 59.82,-151.59 -100.51,-230.62 -103.44,-236.73 -3.09,-40.77 0.55,-55.47 -15.13,-90.79 -13.97,-31.48 -27.86,-41.61 -44.48,-62.32 -27.23,-19.62 -52.15,-36.5 -97.1,-40.41 -76.53,-6.65 -146.86,36.38 -171.6,104.46 -12.32,33.91 -15.59,83.94 -0.36,116.5z"/>
    <path class="fil1" d="M4777.54 4752.76c-0.65,1.1 -1.31,1.53 -1.55,3.49 -0.25,2 -2.3,5.72 -2.67,6.88 -1.91,6.12 -1.68,7.85 -3.06,12.46 -2.49,8.28 -3.15,8.37 -8.83,16.62 -8.58,12.46 -15.76,19.97 -17.41,37.54 -2.67,-16.47 0.69,0.33 -7.57,-8.05 19.34,59.74 68.88,107.11 145.58,116.45 38.5,4.69 77.5,-6.67 104.9,-22.29 15.92,-9.08 23.52,-16.46 34.41,-28.13 8.62,-9.24 19.49,-26.94 27.95,-33.53l16.36 7.37c-18.42,-42.41 -1.96,-35.17 -43.51,-94.97 -4.01,-5.77 -0.97,-1.1 -4.16,-7.34 -11.18,-21.93 4.89,6.28 -3.44,-7.75 4.05,53.57 -12.12,96.46 -58.49,122.22 -87.26,48.48 -186.99,-15.02 -178.52,-120.97z"/>
    <path class="fil1" d="M4733.27 4958.94l-11.9 -43.41 -23.02 -12.57c-29.88,1.82 -58.68,17.94 -75.54,40.81 -16.83,22.84 -25.88,55.42 -17.31,90.16 10.8,43.78 39.96,66.19 78.79,97.71 11.93,9.69 18.26,19.25 31.99,23.66 12.5,-8.7 25.81,-25.91 29.53,-41.94 -11.45,-7.24 -79.99,-66.44 -84.33,-75.91 -8.73,-19.04 -3.17,-47.56 9.45,-61.48 13.72,-15.14 37.17,-17.13 62.34,-17.03z"/>
    <path class="fil1" d="M4733.27 4958.94l44.85 31.87c15.21,11.55 24.88,20.71 40.79,33.69l84.97 68.51 -9.95 -15.5c36.06,-0.08 41.15,-6.15 68.68,-8.6 -10.49,-14.01 -97.84,-81.15 -119.99,-99.33 -34.39,-28.22 -92.2,-87.95 -144.26,-66.64l23.02 12.57 11.9 43.41z"/>
   </g>
   <g>
    <path class="fil1" d="M3854.55 5418.16l20.43 40.7c6.39,0.77 16.1,-1.03 27.51,6.64 79.45,9.77 122.91,121.19 72.51,195.76 -18.58,27.48 -56.49,56.84 -105.8,45.67 -46.63,-10.56 -61.06,-35.99 -80.52,-75.12l-48.84 -0.71c29.53,92.93 102.54,151.5 199.14,119.69 154.48,-50.87 137,-298.01 -27.08,-422.96 -30.16,-22.97 -68.02,-41.17 -113.45,-52.53 -61.45,-15.36 -96.56,-7.14 -154.14,0.58 -70.62,17.6 -172.08,83.35 -189.12,139.05l55.36 0.08c14.35,-24.8 76.5,-75.14 116.09,-85.73 66.12,-43.8 214.12,-13.54 287.86,60.84 1.88,1.89 23.4,28.42 23.77,28.84l-2.89 2.17c-18.89,-6.97 -54.84,-9.68 -80.83,-2.97z"/>
    <path class="fil1" d="M3448.04 5749.49c15.56,14.55 15.87,38.54 74.87,93.12 13.22,12.23 14.78,12.6 29.84,22.78 101.62,68.74 235.14,76.02 337.82,11.28 28.93,-18.23 105.38,-73.01 107.93,-108.69l-52.93 -1.12c-99.44,155.75 -370.81,133.59 -432,-4.65 31.92,4.99 44.22,12.88 84.07,4.3 -0.74,-10.26 -10.81,-36.05 -28.11,-43.33l-10.83 -3.9c-76.6,-5.34 -132.55,-109.73 -81.25,-190.86 33.52,-53.01 97.56,-74.12 154.31,-29.43 17.8,14.01 18.88,25.39 32.75,45 22.74,18.91 -15.81,-2.79 8.72,5.03 12.67,4.04 29.27,1.55 43.17,1.52 -13.59,-37.34 -23.13,-56.79 -45.43,-79.04 -25.26,-25.22 -36.21,-31.11 -77.61,-44.23 -86.98,-15.29 -146.82,41.91 -170.54,99.47 -38.7,93.96 9.96,171.12 25.21,222.73z"/>
    <path class="fil1" d="M3558.71 5719.29l10.83 3.9c17.3,7.28 27.37,33.07 28.11,43.33 79.33,-9.48 146.3,-121.11 118.76,-215.96 -13.89,0.02 -30.49,2.52 -43.17,-1.52 -24.53,-7.82 14.01,13.88 -8.72,-5.03 12.89,45.78 12.91,82.06 -10.89,123.86 -16.45,28.87 -41.27,49.02 -94.92,51.43z"/>
    <path class="fil1" d="M3739.83 5631.1l48.84 0.71c-6.79,-44.15 -9.15,-81.31 12.99,-115.8 19.5,-30.39 50.24,-52.27 100.83,-50.51 -11.41,-7.67 -21.12,-5.87 -27.51,-6.64l-20.43 -40.7c-24.9,4.82 -39.35,14.91 -55.49,30.02 -12.16,11.39 -27.08,23.18 -38.43,43.02 -20.88,36.47 -34.55,91.18 -20.8,139.91z"/>
   </g>
   <g>
    <path class="fil1" d="M2451.99 5465.68l7.76 20.43c0.52,3.57 -0.25,18.06 -0.25,22.88 1.05,-10.54 21.14,-25.28 38.54,-28.74 -6.37,-36.12 -8.62,-56.55 -17.19,-88.67 46.98,7.11 133.47,52.07 222.6,60.6l-22.65 23.88c8.17,14.25 12.41,14.36 20.98,30.6 12.67,-5.83 8.66,-6.61 20.4,-12.95 64.48,-33.69 3.69,-34.34 159.49,-42.15 -5.22,-20.43 -11.85,-36.6 -21.81,-49.59 -111.94,31.01 -278.42,-9.2 -384.22,-59.31 -36.17,-17.13 -67.04,-39.92 -98.22,-56.84 -13.34,5.89 -34.24,19.01 -41.84,32.83 72.45,31.57 108.31,63.74 116.42,147.03z"/>
    <path class="fil1" d="M2429.71 5695.97c-6.34,-9.39 -7.02,-12.16 -11.95,-21.13 -6.55,-11.92 -1.91,-15.25 -9.6,-6.68 2.81,9.3 4.41,6.85 -5.44,6.85 -7.86,6.32 -16.31,20.26 -27.4,30.75 -51.68,48.85 -66.89,41.22 -138.7,47.44l20.4 41.17c115.12,-2.36 181.77,2.59 283.19,38.05 160.37,56.08 163.1,114.93 215.39,60.2 -8.26,-12.55 -25.73,-19.52 -38.6,-27.71 -40.27,-25.6 -58.78,-29.76 -76.87,-106.76 -31.38,-1.99 -11.36,6.19 -42.3,7.85 1.84,11.35 9.28,38.94 5.39,48.44 -0.77,-0.55 -42.62,-17.65 -49.51,-20.08 -49.21,-17.33 -116.22,-37.09 -169.75,-40.98 12.79,-18.72 36.36,-34.2 45.76,-57.42z"/>
    <path class="fil1" d="M2597.83 5766.01c30.94,-1.66 10.92,-9.84 42.3,-7.85 -5.74,-59.34 -12.25,-99.79 9.53,-155.71 9.28,-23.83 17.47,-37.4 31.7,-58.01 14.47,-20.95 30.8,-36.16 40.81,-50.71 -11.74,6.35 -7.73,7.12 -20.4,12.95 -8.57,-16.24 -12.81,-16.36 -20.98,-30.6l-42.66 53.19c-11.2,17.97 -23.04,45.06 -30.27,68.16 -12.5,39.92 -23.06,129.83 -10.04,168.58z"/>
    <path class="fil1" d="M2408.16 5668.16c-7.12,0.07 -4.58,-1.45 -5.44,6.85 9.85,0 8.26,2.45 5.44,-6.85 7.69,-8.58 3.04,-5.24 9.6,6.68 4.93,8.97 5.61,11.74 11.95,21.13l4.65 -4.56c44.64,-50.36 66.07,-145.7 63.68,-211.16 -17.4,3.46 -37.48,18.2 -38.54,28.74 0,-4.83 0.77,-19.32 0.25,-22.88l-7.76 -20.43c2.39,45.09 2.33,76.57 -10.38,117.58 -11.65,37.57 -30.76,66.98 -33.45,84.9z"/>
   </g>
   <g>
    <path class="fil1" d="M1328 4722.15c124.23,-26.57 218.63,66.47 254.18,142.51 54.45,116.51 5.05,235.87 -100.79,260.58 -122.26,28.54 -223.2,-67.41 -257.89,-141.46 -55.19,-117.8 -6.53,-237.88 104.5,-261.63zm-290.02 232.45c9.08,-38.05 1.2,-18.13 18.95,-42.98 7.03,-0.36 24.71,-1.92 30.89,-0.24 12.99,3.53 10.2,3.68 14.46,14.81 9.53,-2.51 42.27,-8.59 47.67,1.92 9.76,18.99 3.9,31.59 31.84,88.78 26.53,54.31 64.7,91.41 115.43,124.59 40,26.16 57.28,23.19 85.43,36.42l-10.94 44.24c11.08,5.67 8.78,5.77 18.57,12.37l-1.03 42.48c-11.11,27.15 -44.97,11.47 -60.38,18.08l-9.1 4.48 -45.13 26.68c18.07,11.22 60.81,9.79 81.4,6.86 21.55,-6.69 56.27,-83.27 65.27,-111.1 4.17,-12.9 5.54,-33.31 17.34,-40.04 115.93,-0.08 184.94,-66.54 213.78,-154.39 16.55,-50.41 11.8,-113.56 -5.2,-161.77 -17.95,-50.9 -53.02,-103.98 -93.49,-137.75 -137.62,-114.8 -381.92,-87.96 -404.28,143.75 -79.37,-1.6 -110.66,37.66 -155.14,56.45l0.06 77.5c1.06,-0.8 2.39,-1.77 3.14,-2.43l22.7 -25.27c11.76,-13.38 16.22,-14.35 17.77,-23.44z"/>
    <path class="fil1" d="M1319.76 5299.55l9.1 -4.48c15.41,-6.61 49.27,9.07 60.38,-18.08l1.03 -42.48c-9.79,-6.59 -7.49,-6.7 -18.57,-12.37l-51.94 77.4z"/>
    <path class="fil1" d="M1037.97 4954.61c24.38,-10.77 31.26,-19.93 64.3,-28.41 -4.26,-11.13 -1.48,-11.28 -14.46,-14.81 -6.18,-1.68 -23.86,-0.12 -30.89,0.24 -17.74,24.86 -9.87,4.93 -18.95,42.98z"/>
   </g>
   <path class="fil1" d="M524.11 3931.51c7.39,-11.76 4.14,-13.06 3.56,-16.02 -2.43,-12.38 -12.46,-29.88 -12.48,-62.25 -59.05,4.38 -92.09,-18.34 -109.7,-58.3 -22.24,-50.45 27.51,-93.1 46.81,-111.98 26.34,-25.76 64.63,-46.58 114.73,-54.12 64.35,-9.69 89.81,9.75 120.86,41.91l23.49 -82.39c-108.5,-62.01 -274.89,15.06 -313.87,72.53 -56.1,82.72 -89.49,143.7 0.72,215.59 22.14,17.64 53.5,20.68 71.29,34.42 -27.58,32.19 -69.91,87.69 -32.68,153.29 71.1,125.25 289.29,92.03 375.01,-0.95 13.99,-15.18 38.31,-37.34 44.9,-61.43 -14.73,-13.94 -63.32,-49.18 -66.86,-55.33 -6.11,29.42 -3.17,44.43 -18.13,68.27 -50.69,80.77 -218.25,121.36 -278.1,25.6 -36.91,-59.06 24.85,-93.87 30.44,-108.84z"/>
   <path class="fil1" d="M515.2 3853.24c0.01,32.37 10.05,49.87 12.48,62.25 0.58,2.96 3.83,4.26 -3.56,16.02 21.62,-11.54 40.71,-24.26 71.37,-35.78 25.47,-9.57 49.66,-18.77 74.8,-27.88 34.2,-12.39 122.88,-38.68 150.2,-55.17 -2.44,-17.86 -15.03,-41.63 -28.07,-50.37 9.12,0.34 6.15,-5.6 7.51,-6.66 -44.2,13.34 -93.1,33.17 -141.91,50.81 -45.65,16.5 -93.44,39.24 -142.81,46.78z"/>
   <path class="fil1" d="M799.93 3755.65c-1.36,1.06 1.6,6.99 -7.51,6.66 13.05,8.74 25.63,32.5 28.07,50.37l176.02 -63.09c-3.38,-20.88 -12.07,-42.98 -24.16,-59.15l-172.41 65.21z"/>
   <g>
    <path class="fil1" d="M573.18 2321.58c4.23,13.08 -0.2,4.87 8.59,14.82 -17.37,9.47 -17.37,13.97 -30.62,23.13 -8.83,-7.52 -10.44,-15.74 -22.42,-22.45 36.53,55.15 93.8,92.83 162.94,117.37 -4.55,16.71 -11.28,39.99 -19.91,53.16 -38.37,-15.99 -80.65,-26.26 -124.66,-24.62 -13.27,0.49 -29.48,0.96 -39.58,7.96 12.43,6.08 17.5,32.35 15.04,40.22 -0.26,0.85 -1.92,3.72 -2.68,4.78 66.73,-3.86 78.83,-2.4 137.16,15.19 -7.35,26.3 -27.59,52.43 -29.93,72.46 -6.82,-0.47 -4.13,-1.63 -5.19,6.77 9.76,0 8.21,2.39 5.19,-6.77 6.06,-3.44 6.25,-2.63 20.98,-0.25 10.22,1.65 15.99,2.37 23.68,8.43 2.46,-2.64 2.88,-2.93 5.83,-7.52l10.03 -21.94c3.51,-8.19 8.36,-19.16 11.47,-25.87 27.55,9.77 12.12,16.86 36.55,22.01 -2.08,7.25 -2.94,5.62 4.2,3.05 -1.36,7.25 -2.55,5.58 4.77,3.68 -2.11,7.18 -3.45,5.92 3.77,4.02 -1.93,7.03 -3.28,5.78 3.77,4.05 -1.77,6.89 -3.13,5.63 3.77,4.07 -1.64,6.74 -2.99,5.47 3.77,4.06 -1.43,7.01 -3.11,5.53 3.64,5.53 1.37,-7.97 3.65,-7.14 -3.64,-5.53 1.48,-6.8 2.93,-5.65 -3.77,-4.06 1.62,-6.97 3.09,-5.82 -3.77,-4.07 1.75,-7.11 3.23,-5.99 -3.77,-4.05 1.91,-7.21 3.35,-6.05 -3.77,-4.02 2.25,-8.08 3.3,-6.27 -4.77,-3.68 1.38,-6.41 2.3,-4.85 -4.2,-3.05 16.67,-12.42 26.93,-12.82 36.01,-31.43 -16.06,-19.14 -40.47,-26.51 -57.26,-42.43l19.22 -63.47c27.88,2.57 85.94,10.6 105.15,-8.63l-9.24 -2c-0.05,-17.52 -1.94,-23.59 -7.82,-35.2l6.18 -11.41c-21.97,4.87 -50.67,8.63 -82.21,6.78l12.38 -64.89c-13.58,-7.99 -31.74,-11.71 -37,-26.96 -14.9,19.84 -5.02,62.91 -21.27,83.25 -38.9,-10.92 -69.8,-30.35 -100.41,-54.72l-26.17 -25.77z"/>
    <path class="fil1" d="M827.87 2403.87l-6.18 11.41c5.89,11.61 7.78,17.68 7.82,35.2l9.24 2c55.04,1.56 127.31,-62.5 155.16,-79.39 -1.21,-23.6 -14.1,-39.18 -19.04,-61.11 -14.19,6.28 -7.49,3.6 -19.44,15.05l-32.11 29.68c-29.89,23.36 -60.78,35.37 -95.45,47.16z"/>
    <path class="fil1" d="M519.87 2535.95c0.77,-1.05 2.42,-3.93 2.68,-4.78 2.46,-7.87 -2.62,-34.14 -15.04,-40.22 -32.93,-3.74 -105.19,34.91 -131.53,54.29 -11.39,8.38 -22.23,19.71 -31.11,27.23 4.59,17.67 15.31,39 26.36,51.99l34.72 -30.19c38.77,-33.54 55.64,-43.69 113.92,-58.32z"/>
    <path class="fil1" d="M528.72 2337.08c11.99,6.71 13.59,14.92 22.42,22.45 13.25,-9.16 13.25,-13.67 30.62,-23.13 -8.79,-9.95 -4.36,-1.73 -8.59,-14.82 -3.83,-13.03 -21.52,-27.65 -36.55,-71.58 -10.77,-31.47 -14.34,-56.68 -15.09,-91.82l-53.61 29.44c2.34,48.3 35.99,133.45 60.8,149.46z"/>
    <path class="fil1" d="M735.64 2598.44c6.49,-1.8 5.58,-3.35 4.2,3.05 8.07,-2.59 7.02,-4.4 4.77,3.68 7.12,-2.03 5.68,-3.18 3.77,4.02 7,-1.94 5.52,-3.06 3.77,4.05 6.86,-1.75 5.39,-2.9 3.77,4.07 6.7,-1.59 5.24,-2.75 3.77,4.06 7.29,-1.6 5.01,-2.43 3.64,5.53 10.01,18.49 25.61,33.88 36.16,60.44 12.9,32.47 12.99,46.26 15.44,83.37l49.4 -26.09c-6.54,-70.53 -57.53,-151.39 -92.67,-177.61 -9.08,18.61 -19.34,19.01 -36.01,31.43z"/>
    <path class="fil1" d="M627.11 2623.6c3.03,9.17 4.57,6.77 -5.19,6.77l-26.31 37.09c-0.5,0.65 -1.25,1.53 -1.76,2.16 -20.28,25.53 -24.23,32.4 -50.46,54.45 9.85,7.28 34.51,14.05 50.18,16.26 23.83,3.37 74.63,-88.88 78.19,-108.56 -7.69,-6.06 -13.46,-6.78 -23.68,-8.43 -14.73,-2.38 -14.91,-3.18 -20.98,0.25z"/>
    <path class="fil1" d="M721.04 2318.81c5.27,15.24 23.43,18.97 37,26.96 2.94,-29.9 5.59,-127.32 -4.36,-160.4 -3.18,-10.55 -1.03,-4.48 -3.63,-10.38l-48.39 -6.3c32.71,87.02 11.48,90.28 19.37,150.12z"/>
   </g>
   <path class="fil1" d="M3856.32 598.73c7.37,10.51 10.08,11.97 18.34,20.89 2.76,2.98 5.21,6.23 7.52,8.62 5.93,6.13 1.24,5.18 9.69,7.6 14.67,-6.04 63.53,-49.47 81.47,-62.9 0.9,49.5 -3.97,104.86 -6.31,153.87 -1.57,32.9 -8.59,51 8.81,71.45 7.35,8.64 36.62,37.79 43.5,42.13l19.28 -366.99 -370.98 -15.08c5.6,14.66 25.73,32.75 38.05,45.96 16.82,18.03 23.68,11.16 72.81,13.63 44.89,2.24 117.28,1.76 160.23,9.01l-82.41 71.79z"/>
   <path class="fil1" d="M3720.8 799.81c-19.79,-5.55 -22.69,-11.9 -36.72,-26.34 -12.64,-13.01 -15.58,-18.98 -18.97,-39.38 -13.55,-25.02 -45.31,-58.38 -64.37,-83.45 -13.23,7.47 -28.05,21.6 -40.55,30.32 6.44,20.1 53.81,67.14 73.45,102.8l-119.06 91.15c7.99,18.47 20.68,36.52 32.48,46.21 21.01,-5.48 104.94,-88.5 122.66,-98.13l39.53 47.14c12.57,16.42 29.09,30.86 36.14,49.82 22.84,-6.56 29.68,-20.79 44,-32.98l-68.6 -87.17z"/>
   <path class="fil1" d="M3665.12 734.09c3.39,20.4 6.32,26.37 18.97,39.38 14.03,14.43 16.93,20.79 36.72,26.34 -5.81,-8.23 -3.9,-7.31 -6.63,-13.32 15.29,-11.19 29.16,-23.59 45.04,-35.65l87.3 -73.83c16.9,-11.88 32.62,-24.63 45.36,-41.16 -8.45,-2.42 -3.76,-1.47 -9.69,-7.6 -2.32,-2.39 -4.77,-5.64 -7.52,-8.62 -8.26,-8.92 -10.97,-10.38 -18.34,-20.89 -34.13,22.41 -156.72,133.28 -178.47,145.33l-12.72 -9.97z"/>
   <circle class="fil2 str0" cx="3121.9" cy="3121.9" r="2966.27"/>
   <g>
    <circle class="fil2 str0" cx="3121.9" cy="3121.9" r="2056.23"/>
    <circle class="fil1 str1" cx="3121.9" cy="3121.9" r="1909.09"/>
    <g>
     <path class="fil3 str2" d="M3503.9 2053.57c15.95,15.35 20.53,3 30.83,28.56 5.94,14.75 12.21,30.56 10.93,48.48 -51.29,57.32 -217.94,37.71 -313.42,32.16 -65.3,-3.79 -286.18,-25.36 -333.57,-21.43 -25.42,1.74 -30.31,16.96 -59.55,36.49l9.14 12.64c4.55,39.94 -33.04,26.62 -46.82,60.19 -29.43,71.65 -83.63,124.11 -126.55,179.8 -4.37,51.41 -60.49,149.1 -19.71,341.64 3.42,16.16 8.08,34.62 13.82,51.9 4.81,14.47 8.04,32.85 18.62,43.49l12.5 -9.97c10.12,-7.81 34.5,-40.94 45.17,-55.55 19.92,-27.25 26.89,-25.62 14.17,-63.79 -13.24,-39.74 -39.7,-117.79 -32.62,-159.62 6.74,-39.83 24.34,-38.81 41.73,-61.16 22.61,-29.07 -3.9,-176.9 71.18,-224.25 32.97,-20.79 142.53,-13.37 188.34,-13.26 65.45,0.15 125.99,-1.43 190.91,-5.18 77.77,-4.5 305.81,-19.16 357.04,26.44 -2.67,34.37 -37.71,55.53 -43.11,65.32 14.87,12.19 41.68,49.57 52.19,67.31 69.12,116.75 79.88,256.2 17.83,380.06 -35.47,70.8 -121.65,171.37 -185.29,177.26 1.68,-7.76 3.4,-5.99 -4.3,-5.99l4.3 5.99c4.46,18.45 25.88,24.9 50.62,30.97 22.49,5.52 44.9,10.3 65.31,16.89 50.12,16.19 71.93,33.78 108.72,54.17 21.48,-3.51 40.48,-25.44 53.35,-42.67 10.14,-13.58 9.98,-5.9 7.78,-21.91 -6.23,-43.1 -30.23,-64.56 -2.16,-115.94 15.44,-28.26 85.02,-95.77 127.66,-159.32 16.41,-24.46 46.62,-55.59 64.48,-72.8 -6.34,-120.8 4.57,-107.97 -29.34,-231.34 -40.95,-148.99 -153.79,-281.35 -286.14,-361.25 -11.17,-6.75 -73.6,-39.59 -80.25,-39.12 8.38,-2.59 6.22,-4.06 6.22,4.79z"/>
     <path class="fil3 str2" d="M3497.68 2048.78l6.22 4.79c0,-8.85 2.16,-7.38 -6.22,-4.79 6.65,-0.47 69.08,32.38 80.25,39.12 132.35,79.9 245.18,212.26 286.14,361.25 33.91,123.37 23.01,110.55 29.34,231.34l5.99 -3.46c0.79,-0.5 4.51,-2.82 5.55,-3.5 17.19,-11.24 20.11,-15.91 43.77,-12.06 22.87,43.25 18.89,112.48 18.12,168.96 -0.86,63.06 5.86,127.71 5.15,188 10.12,6 1.7,10.9 22.17,-29.92 19.85,-39.58 39.85,-94.7 50.66,-137.93 7.71,-30.84 6.59,-133.94 6.7,-180.24l1.36 -49.15c0.01,-0.06 -7.84,5.04 4.81,-13.45 -0.22,-136.76 -2.02,-167.36 -73.31,-253.68 -52.27,-63.3 -104.38,-104.71 -172.74,-159.74 -78.83,-63.46 -145.28,-96.46 -138.34,-187.8 7.98,-105.05 -5.77,-76.12 -45.37,-112.35 -13.42,-12.28 -24.92,-27.58 -35.61,-46.77 -15.52,-27.86 -7.32,-37.46 -40.4,-45.9 -46.77,0.57 -102.26,50.28 -99.38,95.79 3.38,53.4 -15.15,102.74 12.4,131.09 14.53,14.95 19.4,18.69 32.74,20.39z"/>
     <path class="fil3 str2" d="M3413.35 2985.11c7.71,0 5.98,-1.77 4.3,5.99 63.64,-5.89 149.82,-106.46 185.29,-177.26 62.05,-123.87 51.29,-263.31 -17.83,-380.06 -10.51,-17.74 -37.32,-55.12 -52.19,-67.31 -38.13,25.14 -91.3,45.1 -104.71,88.77 -17.22,56.07 43.92,83.03 86.46,97.19 9.3,82.23 -58.91,97.88 -101.01,191.81 -29.4,65.58 -35.79,178.3 -0.31,240.86z"/>
     <path class="fil3 str2" d="M2285.7 3752.61c-13.54,53.69 -30.87,109.34 -44.83,165.02 -4.36,17.41 -32.07,150.46 -43.06,163.12 1.55,19.96 -10.34,69.19 -15.69,93.23 32.81,6.38 55.32,38.31 94.77,30.51 7.29,-5.06 21.91,-30.71 32.35,-41.95 36.65,-39.42 79.02,-81.94 100.33,-125.65 21.34,-43.79 81.57,-169.23 89.62,-211.67 -12.2,-27.55 -39.02,-37.03 -53.12,-61.21l-44.99 2.71 -12.8 -6.9c-14.38,-7.59 -23.48,-11.17 -40.97,-12.49 -21.1,-1.59 -48.25,-3.54 -61.6,5.28z"/>
     <path class="fil3 str2" d="M2473.22 2550.56c-1.72,21.94 -4.12,38.38 -4.1,66.45 0.01,21.91 -0.01,43.8 -0.07,65.71 -0.19,69.75 22.93,156.52 43.65,219.42l38.79 93.96 12.2 -5.81c38.47,-19.6 117.5,-103.38 136.44,-132.76l-12.5 9.97c-10.58,-10.64 -13.81,-29.02 -18.62,-43.49 -5.74,-17.28 -10.4,-35.74 -13.82,-51.9 -40.78,-192.54 15.34,-290.23 19.71,-341.64 -16.31,11.78 -27.79,23.88 -44.01,39.43 -12.64,12.11 -26.86,22.43 -43.39,34.82 -33.81,25.35 -63.28,40.04 -114.27,45.85z"/>
     <path class="fil3 str2" d="M3971.99 3018.43c2.87,72.84 12.16,215.08 32.23,279.7 20.74,66.78 61.97,184.7 132.31,176.68 30.61,-15.82 43.58,-51.17 63.18,-80.15 19,-28.08 55.03,-63.88 3.8,-82.8 -102.34,-37.8 -133.75,3.15 -142.7,-138.17 -8.57,-135.17 -2.71,-415.49 -3.12,-565.96 -12.65,18.49 -4.8,13.39 -4.81,13.45l-1.36 49.15c-0.12,46.31 1.01,149.4 -6.7,180.24 -10.81,43.23 -30.81,98.35 -50.66,137.93 -20.47,40.82 -12.05,35.92 -22.17,29.92z"/>
     <path class="fil3 str2" d="M3110.01 3282.21c-8.64,41.58 -44.54,168.42 -43.4,201.48 -5.23,23.44 26.88,42.76 46.32,50.36 29.45,11.51 52.54,8.85 91.55,7.81l0 -7.31c35.5,-1.88 51.12,-24.37 69.32,-44.23 80.12,-87.44 -5.45,-204.83 -65.21,-210.98 0.09,-0.63 1.07,-1.38 1.07,-1.58 -0.01,-0.44 0.16,-2.69 -1.07,-5.72 -23.75,-0.65 -76.45,-7.61 -96.07,7.73 -0.65,0.5 -1.63,1.68 -2.49,2.46z"/>
     <path class="fil3 str2" d="M3110.01 3282.21c0.86,-0.78 1.84,-1.95 2.49,-2.46 19.62,-15.34 72.32,-8.38 96.07,-7.73 1.23,3.04 1.05,5.28 1.07,5.72 0,0.21 -0.98,0.95 -1.07,1.58 59.76,6.15 145.33,123.54 65.21,210.98 -18.2,19.86 -33.81,42.35 -69.32,44.23l0 7.31c-39.01,1.04 -62.1,3.7 -91.55,-7.81 -19.44,-7.6 -51.56,-26.91 -46.32,-50.36 -10.14,10.37 -14.12,37.92 -17.08,49.2 -3.8,14.44 -8.19,30.15 -14.12,48.43 21.17,12.63 35.23,32.79 66.45,36.51 73.04,8.69 149.89,12.03 206.27,-43.94 5.03,-4.99 7.3,-7.35 12.28,-12.25l15.82 -14.24c29.22,-54.86 30.52,-120.42 7.48,-183.29 -22.45,-61.26 -54.97,-95.24 -76.94,-148.15 -37.25,-21.92 -74.1,-22.72 -132.8,-20.57 -2.13,7.54 -3.75,13.28 -6.13,21.86 -2.67,9.63 -3.09,10.95 -6.81,22.94 -4.69,15.11 -7.66,25.98 -11.02,42.02z"/>
     <path class="fil3 str2" d="M2563.69 2990.28l-12.2 5.81 -38.79 -93.96c-20.72,-62.9 -43.84,-149.66 -43.65,-219.42 0.06,-21.9 0.08,-43.8 0.07,-65.71 -0.02,-28.08 2.38,-44.52 4.1,-66.45 -36.69,3.94 -70.17,5.51 -108.3,2.78 -24.9,-1.78 -73.55,-12.31 -93.15,-11.72 -17.86,99.13 68.7,96.79 158.82,210.11l36.73 44.46c70.04,92.02 -92.12,257.73 -51.9,350.43 26.13,4.59 31.83,-7.06 39.06,-32.83 7.51,-26.76 10.9,-34.31 25.46,-52.38 16.89,-20.94 60.15,-47.63 83.74,-71.14z"/>
     <path class="fil3 str2" d="M3923.94 4148.37l-0.59 2.94c14.99,21.09 30.54,33.7 47.68,53.58 15.39,17.84 31.45,33.55 46.9,51.57 18.83,21.96 83.2,89.13 100.6,98.39 1.17,0.32 2.9,-0.3 3.5,1.03l15.89 1.38c0.57,-0.12 35.62,-12.92 36.36,-32.34 -2.68,-22.45 -22,-47.2 -32.49,-68.96 -11.01,-22.82 -19.53,-45.27 -29.17,-69.44 -18.06,-45.28 -35.39,-106.8 -54.7,-143.55 -9.64,0 -8.02,2.22 -4.57,-6.84 -29.27,5.77 -25.07,0.91 -48.94,13.3 -18.18,9.43 -20.64,13.63 -33.93,26.8 -18.73,18.57 -43.95,38.17 -46.55,72.13z"/>
     <path class="fil3 str2" d="M2573.01 3614.74c24.69,-28.83 42.32,-76.17 56.46,-116.46 8.56,-24.38 27.17,-96.89 27.58,-123.9 1.32,-86.43 -252.1,122.37 -273.69,161.43 65.07,-1.92 143.85,53.98 156.61,57.46 15.07,4.11 -16.9,-14.32 12.9,2.56 10.11,5.72 14.68,9.47 20.14,18.91z"/>
     <path class="fil3 str2" d="M2035.77 2874.46c0.4,54.91 -6.31,123.27 -18.72,175.34 -8.29,34.8 -34.29,121.32 -31.06,155.49 16.77,22.58 -11.65,-2.22 17.62,14.56 9.46,5.42 30.36,18.31 42.66,13.67 16.19,-6.11 -1.78,3.88 12.93,-19.38 10.33,-89.12 96.28,-265.82 89.66,-322.92l0.08 -21.61c-19.06,-0.96 -26.52,-7.42 -47.69,-8.5 -18.15,-0.92 -39.25,0.07 -58.43,0.03l-7.06 13.31z"/>
     <path class="fil3 str2" d="M1848.84 2186.11l18.7 41.02c21.3,42.13 13.17,39.42 20.1,30.89 13.32,-110.92 -82.14,-168.49 48.65,-310.31l61.74 -73.68c59.03,-84.96 154.8,-177.09 237.25,-234.55 9.67,-6.74 32.12,-20.16 38.41,-28.44 0,-9.18 -2.3,-7.77 6.28,-5.01l-71.98 -0.57c-19.15,7.54 -105.33,81.79 -130.05,106.48 -20.82,20.79 -35.1,41.12 -58.3,60.82 -35.31,29.97 -141.17,151.99 -161.85,202.91 -31.17,76.75 -12.86,130.44 -8.94,210.44z"/>
     <path class="fil3 str2" d="M2486.63 1838.81c-10.53,34.94 -23.24,80.76 -38.45,112.22 -19.93,41.23 -41.84,64.3 -62.03,94.28 22.92,17.93 20.46,24.21 51.54,34.03 23.03,7.27 53.55,4.74 82.16,4.07 -5.12,-41.63 27.41,-61.36 62.88,-68.99 7.56,-7.76 13.55,-9.79 18.37,-21.92 12.77,-32.2 6.53,-74.88 -9.36,-103.57 -17.29,-31.21 -55.94,-62.81 -88.38,-58.08 -13.84,2.01 -12.45,7.66 -13.73,5.73 -0.62,-0.93 -2.14,1.33 -2.99,2.23z"/>
     <path class="fil3 str2" d="M3274.06 4159.59c6.74,-1.64 5.32,-2.86 3.96,3.98 6.99,-1.81 5.8,-3.4 4.64,3.53 7.13,-1.68 5.63,-3.01 4.26,4.23 6.52,-1.26 4.94,-2.41 3.86,4.33 6.55,-1.05 4.81,-2.16 3.76,4.72l3.67 5.14c12.39,16.62 26.47,34.25 39.63,57.76 6.65,11.88 11.08,20.47 17.15,33.17 4.44,9.27 8.17,19.13 13.44,27.8 10.17,9.91 -2.49,5.43 19.06,12.84 4.93,1.7 24.48,5.24 27.08,5.59 19.89,2.67 40.77,0.8 60.9,0.98 -5.6,-25.66 -21.17,-63.48 -32.02,-91.36 -8.12,-20.86 -30.95,-70.7 -33.26,-87.65l-9.99 -17.29c-11.93,-26.62 -33.17,-86.33 -44.62,-104.05 -13.17,-0.27 -9.27,1.14 -30.7,22.65 -42.25,42.4 -46.28,51.44 -50.83,113.64z"/>
     <path class="fil3 str2" d="M2866.16 3236.54c0,8.57 1.88,6.57 -6.83,4.45l-6.14 1.17c-14.88,26.01 -20.5,17.33 -20.58,63.98 -0.08,47.89 24.49,88.72 72.45,95.69 112.4,16.36 161.3,-111.15 76.63,-176.57 -20.81,-16.07 -38.89,-17.09 -74.26,-14.4 -12.8,8.24 -30.1,16.95 -41.26,25.67z"/>
     <path class="fil3 str2" d="M2040.59 2735.93l0.96 -2.08 1.95 -56.61c34.82,-0.15 96.88,-8.62 118.61,8.66 7.29,-14.16 15.63,-63.49 18.67,-83.05 12.44,-80.02 -21.26,-97.2 -74.21,-126.77 -19.04,-10.63 -45.76,-28.44 -67.03,-36.17 -0.02,50.84 -6.47,98.09 -4,148.56 2.4,49.02 3.5,96.88 5.04,147.46z"/>
     <path class="fil3 str2" d="M2244.76 4377.11c-17.07,-3.67 -33.96,-6.97 -49.55,-12.26 -16.4,-5.56 -26.02,-11.68 -45.93,-16.21l-2.13 -12.23c-12.97,14.94 -15.47,44.01 -23.96,62.48 -31.29,68.01 -136.04,68.51 -148.62,96.47 -4.36,40.18 31.16,52.28 69.42,56.24 47.57,4.93 78.3,1.76 98.28,-26.78 42.94,-61.36 101.51,-88.77 102.49,-147.72z"/>
     <path class="fil3 str2" d="M2798.44 4330.29c2.98,3.6 -8.89,11.39 41.28,6.8 28.95,-2.65 6.29,-0.43 24.52,-8.76 38.23,-17.46 3.87,2.85 42.31,-23.53 6.88,-22.48 22.8,-54.96 34.55,-76.6 10.54,-19.42 32.25,-52.94 37.5,-66.92 -3.21,-39.06 -11.66,-50.6 -32.36,-71.84 -11.25,-11.54 -36.48,-39.73 -49.35,-44.97 -9.76,51.36 -23.59,104.4 -41.38,151.7 -15.31,40.69 -47.37,95.91 -57.06,134.12z"/>
     <path class="fil3 str2" d="M2922.51 3930.43c17.77,-12.17 34.41,5.7 48.35,15.39 26.85,18.65 99.93,77.39 97.5,114.27l12.67 -17.71c14.37,-45.35 55.71,-191.63 2.85,-209.63 -16.41,-5.59 -107.8,0.96 -119.3,8.81 -17.26,11.78 -35.36,65.89 -42.08,88.86z"/>
     <path class="fil3 str2" d="M3556.29 4438.25l-33.93 10.92c-15.97,4.09 -19.49,9.34 -22.54,9.87l-90.24 0.26 -7.23 -23.41c0.82,37.12 -11.17,96.66 11.33,121.31 24.55,3.5 49.93,-7.57 75.09,-10.97 63.94,-8.64 139.91,2.03 221.02,-32.6 -6.15,-16.51 -15.93,-19.3 -32.35,-27.19 -27.51,-13.22 -96.39,-43 -121.14,-48.19z"/>
     <path class="fil3 str2" d="M2486.63 1838.81c0.85,-0.91 2.37,-3.17 2.99,-2.23 1.28,1.93 -0.11,-3.71 13.73,-5.73 32.44,-4.73 71.1,26.87 88.38,58.08 15.89,28.69 22.14,71.37 9.36,103.57 -4.82,12.14 -10.81,14.16 -18.37,21.92 21.5,-6.18 54.09,-11.01 68.49,-21.26 13.55,-9.64 33.35,-38.68 34.22,-57.86 0.28,-42.86 1.11,-22.94 -8.43,-59.72 -11.51,-44.39 -94.06,-134.82 -149.18,-124.11 -4.6,3.34 -8.23,9.5 -11.93,16.74 -2.9,5.68 -2.61,5.74 -5.44,11.77l-23.83 58.83z"/>
     <path class="fil3 str2" d="M2312.37 2137.41c1.53,12.67 0.02,6.7 9.69,16.41 4.77,4.79 12.19,11.94 17.04,15.8 12.83,10.22 69.23,31.45 87.78,34.61 53.35,9.09 158.17,-0.03 202.96,-38.87l31.97 -30.96 3.58 -11.52c-35.87,-5.53 -70.09,-10.1 -105.72,-13.6 1.13,0.76 4.51,3.38 5.09,3.84l5.19 4.58c-17.88,4.84 -6.23,5.99 -26.17,11.5 -10.54,2.91 -23.17,6.54 -29.18,7.69 -11.45,2.19 -61.66,2.59 -72.32,-0.24 -16.11,-4.27 -4.21,-5.85 -25.8,-10.51 -17.04,-3.68 -16.7,-2.89 -29.75,-7.95 -18.11,-7.03 -34.73,-18.46 -31.4,-35.56 -4.09,3.7 -6.62,4.91 -12.4,13.07l-4.69 7.74c-14.28,25.84 -3.88,18.9 -25.86,33.97z"/>
     <path class="fil3 str2" d="M2944 3172.8l-4.07 4.29 -3.74 4.14 -3.86 4.65 -4.45 3.74 -4.31 3.78 -4.12 3.93 -2.71 3.96 -9.33 9.58c35.38,-2.69 53.46,-1.68 74.26,14.4 84.67,65.42 35.78,192.93 -76.63,176.57 -47.96,-6.98 -72.53,-47.8 -72.45,-95.69 0.08,-46.65 5.7,-37.97 20.58,-63.98l6.14 -1.17c8.72,2.13 6.83,4.13 6.83,-4.45l-6.83 4.45 -6.14 1.17c-17.2,7.36 -70.87,41.06 -82.28,50.64 22.49,16.9 75.05,81.46 92.93,107.56 10.63,15.52 14,25.14 25.14,39.72 9.89,7.3 25.9,8.65 44.96,8.06 46.6,-1.46 79.7,-18.45 102.06,-56.32l26.22 -125.31c-8.16,-12.84 -5.65,-24.71 -16.42,-39.44l-41.31 -41.24c-5.81,-4.5 -1.32,-1.72 -6.99,-4.65 -0.6,-0.31 -1.75,-0.77 -2.35,-1.03 -13.27,-5.77 -27.58,-11.68 -47.16,-11.4l-3.99 4.05z"/>
     <path class="fil3 str2" d="M2343.71 3608.91c-20.37,33.48 -44.62,100.54 -58.02,143.7 13.35,-8.83 40.51,-6.87 61.6,-5.28 17.49,1.32 26.59,4.9 40.97,12.49l12.8 6.9c2.76,-25.09 26.73,-49.52 47.68,-58.76 18.32,-10.85 51.37,-13.88 63.05,-29.08 0,-9.23 -2.54,-8.12 5.8,-5.63 -1.03,-7.05 -2.08,-5.26 5.01,-3.05 -24.52,-17.14 -37.98,-36.97 -67.99,-43.18 -7.16,-1.48 -17.79,-1.95 -28.8,-4.8 -12.95,-3.36 -7.86,-5.33 -23.49,-9.15 -9.02,-2.2 -51.58,-5.32 -58.62,-4.16z"/>
     <path class="fil3 str2" d="M2233.33 2154.73l-9.43 4.89c50.56,41.74 140.66,99.81 230.82,102.63 102.17,3.19 184.03,-57.59 207.09,-127.85l-31.97 30.96c-44.79,38.84 -149.61,47.96 -202.96,38.87 -18.55,-3.16 -74.95,-24.39 -87.78,-34.61 -4.84,-3.86 -12.26,-11.01 -17.04,-15.8 -9.67,-9.71 -8.16,-3.74 -9.69,-16.41 -25.81,7.28 -47.61,16.53 -79.05,17.32z"/>
     <path class="fil3 str2" d="M3035.41 3581.32c-5.78,13.66 -6.8,25.19 -10.34,37.33 -4.21,14.41 -8.36,24.64 -8.73,39.38 38.92,27.23 61.97,35.26 108.91,41.93 106.67,15.16 89.71,-12.74 120.21,-28.83 26.54,-24.42 75.2,-87.23 90.78,-123.73l-15.82 14.24c-4.97,4.91 -7.25,7.26 -12.28,12.25 -56.38,55.97 -133.23,52.63 -206.27,43.94 -31.22,-3.71 -45.28,-23.88 -66.45,-36.51z"/>
     <path class="fil3 str2" d="M2868.17 4447.86c-7.15,11.2 -7.26,26.54 -6.87,42.05 -33.56,0.33 -85.06,3.01 -111.64,-4l-55.65 -21.92c-24.16,-13.44 -15.48,-11.21 -11.09,-16.79 -113.03,51.1 -102.29,32.44 -157.01,54.24 2.01,23.01 10.9,26.41 35.17,31.05l171.67 12.48c167.04,10.33 128.33,-11.66 135.42,-97.12z"/>
     <path class="fil3 str2" d="M2559.66 1709.78c-6.39,-0.93 -4.71,-2.25 -4.71,4.34 6.47,-0.31 5.36,1.56 4.71,-4.34 55.32,14.86 82.17,48.47 119.61,86.98 6.29,6.47 10.08,9.47 14.85,18.03 8.75,15.72 1.43,11.71 15.58,23.72l14.05 -52.1c10.35,-67.93 16.42,-84.4 5.17,-155.11 -44.03,3.59 -99.74,28.04 -135.27,50.89 -13.55,8.71 -26.7,16.02 -33.99,27.59z"/>
     <path class="fil3 str2" d="M3843.8 4057.05c7.25,-11.33 4,-9.81 13.18,-20.49 35.47,-41.24 98.71,-99.49 156.57,-99.79 -1.53,6.47 -3.04,5.09 3.28,5.09l-3.28 -5.09c-5.19,-19.88 -41.79,-86.8 -54.26,-97.78 -9.24,24.99 -24.93,46.31 -40.28,62.7 -18.61,19.85 -33.17,28.98 -70.21,32.59 -56.21,5.48 -45.38,55.36 -25,94.06l20 28.7z"/>
     <path class="fil3 str2" d="M3964.6 1750.53c-1.07,6.23 -2.66,4.98 3.18,4.98l-3.18 -4.98c9.47,-6.75 21.79,-3.74 36.96,-4.43l2.2 5.6c-1.72,7.42 -3.34,5.71 4.07,5.71l-4.07 -5.71 -2.2 -5.6c-12.76,-30.44 -54.18,-72.36 -84.18,-84.02 -42.87,-16.67 -58.2,18.85 -146.96,12.88 -78.97,-5.32 -125.84,-36.64 -202.82,21.13 -22.94,17.21 -24.17,25.25 -42.58,43.21l19.26 -13.16c57.63,-45.69 126.34,-27.35 201.05,-19.06 81.87,9.1 126.49,-15.54 179.55,12.98 22.71,12.21 18.76,19.8 39.72,30.47z"/>
     <path class="fil3 str2" d="M4254.43 2234.88c0.63,-0.76 1.45,-3.05 1.65,-2.47 0.02,0.06 15.71,-23.3 9.62,-75.35 -0.97,-46.15 -51.06,-129.8 -81.07,-167.37 -19.91,-24.92 -37.64,-46.53 -57.81,-68.97 -12.35,-13.74 -43.27,-59.37 -57.59,-66.71 -9.02,0 -8.19,2.68 -5.96,-5.15 -8.12,1.53 -6.07,2.65 -3.54,-5.52 -7.02,1.17 -4.88,1.99 -2.74,-5.36 -6.92,0.12 -17.99,-0.87 -23.94,-0.35 -16.54,1.45 -6.66,-2.39 -15.47,4.83 11.4,41.09 89.81,145.62 136.82,177.55 40.82,27.73 51.45,35.89 71.04,84.99 12.89,32.32 24.19,92.66 29,129.86z"/>
     <path class="fil3 str2" d="M2207.98 1605.47l71.98 0.57c-8.58,-2.76 -6.28,-4.17 -6.28,5.01l6.28 -5.01c27.12,-3.42 60.1,-48.87 183.91,-66.17 69.81,-9.75 158.5,9 206.62,38.58l5.59 -2.1c0.02,-0.05 -103.83,-95.18 -245.58,-73.64 -57.35,8.72 -202.91,70.7 -222.53,102.76z"/>
     <path class="fil3 str2" d="M2040.59 2735.93l-4.82 138.53 7.06 -13.31c19.18,0.03 40.28,-0.95 58.43,-0.03 21.17,1.07 28.63,7.53 47.69,8.5l-0.08 21.61c14.8,-23.08 6.73,-120.53 10.97,-156.8l-118.27 -0.56 -0.96 2.08z"/>
     <path class="fil3 str2" d="M3172.49 4004.33c5.75,-21.45 92.75,-109 126.84,-118.14 -7.27,-24.5 -39.97,-107.09 -53.83,-120.11 -53.16,2.98 -76.03,153.61 -77.56,204.54 -0.32,10.71 -0.58,24.22 4.55,33.71z"/>
     <path class="fil3 str2" d="M2383.36 3535.81c-9.61,13.94 -34.17,53.26 -39.65,73.11 7.04,-1.16 49.6,1.96 58.62,4.16 15.64,3.82 10.54,5.79 23.49,9.15 11.01,2.85 21.64,3.32 28.8,4.8 30,6.21 43.46,26.04 67.99,43.18 -7.1,-2.2 -6.04,-4 -5.01,3.05 -8.34,-2.49 -5.8,-3.6 -5.8,5.63 7.99,-1.11 6.84,1.39 5.8,-5.63 7.51,2.11 6.78,4.2 5.01,-3.05 13.41,-2.75 6.72,0.93 18.4,-10.39 4.38,-4.25 7.21,-8.14 11.04,-13.47 6.39,-8.89 15.34,-20.43 20.96,-31.6 -5.46,-9.44 -10.03,-13.19 -20.14,-18.91 -29.8,-16.88 2.17,1.55 -12.9,-2.56 -12.76,-3.47 -91.53,-59.37 -156.61,-57.46z"/>
     <path class="fil3 str2" d="M4184.73 4462.59l-1.12 78.24c16.57,8.63 74.33,13.41 97.82,14.45 24.85,1.11 21.58,-1.37 30.27,5.73 23.35,-13.65 37.78,-0.53 39.98,-36.54 -8.79,-8.84 -9.88,-19.7 -20.34,-31.65 -26.46,-30.23 -37.11,-30.65 -64.82,-49.6 -11.54,-7.89 -19.39,-16.86 -29.57,-24.35 2.98,5.74 4.18,8.38 6.77,13.18 -19.94,10.29 -26.27,26.94 -59,30.54z"/>
     <path class="fil3 str2" d="M3843.8 4057.05c8.23,15.37 14.83,23.33 25.62,36.61 5.86,7.22 19.04,24.56 26.51,30.68l8.57 3.65c-1.46,6.7 -2.95,5.34 3.73,4.72 -1.38,6.21 -2.8,4.58 2.97,5.7l2.68 4.83 3.85 4.37 5.62 3.71 0.59 -2.94 -6.21 -0.77 -3.85 -4.37 -2.68 -4.83 -2.97 -5.7c1.36,-7.26 3.19,-6.25 -3.73,-4.72l-8.57 -3.65c2.1,-39.49 32.13,-59.52 53.97,-80.97 22.17,-21.77 49.68,-41.69 92.27,-41.67 -2.18,7.97 -4.19,6.44 3.45,6.44l-3.45 -6.44 -25.35 -59.85c-6.32,0 -4.81,1.38 -3.28,-5.09 -57.85,0.3 -121.1,58.55 -156.57,99.79 -9.19,10.68 -5.93,9.16 -13.18,20.49z"/>
     <path class="fil3 str2" d="M3172.49 4004.33l3.18 34.51c2.3,6.67 4.4,11.33 7.6,18.54 9,20.26 15.75,37.37 31.61,42.49 -2.44,7.58 -4.02,5.86 3.75,5.86 1.66,-8.76 4.25,-8.12 -3.75,-5.86 -2.66,-22.13 3.31,-36.86 11.67,-50.07 5.76,-9.1 20.85,-27.68 29.07,-36.19 19.17,-19.87 43.56,-50.86 71.08,-59.83l-27.37 -67.58c-34.08,9.15 -121.09,96.69 -126.84,118.14z"/>
     <path class="fil3 str2" d="M3214.87 4099.87c8,-2.26 5.41,-2.9 3.75,5.86 4.99,12.14 16.8,20.64 27.3,30.56 17.63,16.64 10.05,17.15 28.14,23.32 -1.83,7.17 -3.18,5.88 3.96,3.98 -1.48,6.87 -2.48,5.1 4.64,3.53 -1.1,6.84 -2.54,5.45 4.26,4.23 -1.36,6.65 -2.78,5.32 3.86,4.33 -1.09,6.37 -2.54,4.96 3.76,4.72 -1.06,6.56 -2.64,5.14 3.67,5.14l-3.67 -5.14c1.05,-6.89 2.79,-5.77 -3.76,-4.72 1.08,-6.74 2.66,-5.59 -3.86,-4.33 1.37,-7.24 2.87,-5.91 -4.26,-4.23 1.17,-6.93 2.35,-5.34 -4.64,-3.53 1.36,-6.84 2.78,-5.62 -3.96,-3.98 4.55,-62.2 8.58,-71.24 50.83,-113.64 21.43,-21.5 17.53,-22.92 30.7,-22.65 -2.86,-14.8 -21.8,-58.54 -28.9,-69.54 -27.52,8.96 -51.91,39.96 -71.08,59.83 -8.22,8.52 -23.31,27.09 -29.07,36.19 -8.36,13.22 -14.32,27.95 -11.67,50.07z"/>
     <path class="fil3 str2" d="M3245.45 3671.13c-30.49,16.09 -13.53,43.99 -120.21,28.83 -46.93,-6.67 -69.98,-14.7 -108.91,-41.93 -16.62,23.32 -38.17,126.15 -45.39,153.64 15.96,-9.97 41.79,-34.06 61.21,-50.26 25.32,-21.11 36.99,-27.46 82.17,-25.57 78.44,3.26 30.43,33 131.12,-64.71z"/>
     <path class="fil3 str2" d="M2735.47 3046.49l-3.82 3.95c0.81,6.1 2.17,4.58 -3.92,4.7l-3.73 4 -3.38 4.95 -3.18 4.8 -3.03 5.17c1.31,7.06 3.03,5.87 -3.78,4.86 1.02,7.86 2.47,5.51 -6.06,5.51 -11.65,3.84 -22.75,23.08 -33.52,32.88 -12.53,11.4 -23.14,23.27 -33.98,35.72 -18.5,24.07 -47.67,41.91 -56.51,67.26 21.37,10.14 23.53,8.35 53.74,8.59 18.84,-20.87 40.47,-28.52 62.54,-61.02 3.4,-5 4.26,-7.36 8.69,-11.88 0.88,-0.89 3.62,-3.4 4.61,-4.19 6.49,-5.14 -0.41,-0.65 8.93,-5.59 19.33,-9.37 25.72,-27.68 38.87,-43.13 0.11,-20.78 1.44,-22.9 -4.43,-39.07 -10.45,-28.78 -7.81,-21.97 -18.04,-17.5z"/>
     <path class="fil3 str2" d="M2682.92 4447.21c-4.39,5.58 -13.07,3.35 11.09,16.79l55.65 21.92c26.58,7.01 78.09,4.33 111.64,4 -0.39,-15.51 -0.28,-30.86 6.87,-42.05l3.87 -32.84c-15.95,8.47 -53.21,6.57 -78.07,6.03 -7.2,-0.15 -11.47,-0.18 -18.14,-1.93 -11.43,-2.99 2.07,0.39 -8.78,-3.3 -1,-0.34 -2.01,-0.8 -3.04,-1.13 -1.06,-0.34 -2.13,-0.7 -3.22,-1.02 -9.22,-2.69 -17.47,-4.19 -26.44,-6.35 11.48,-2.69 5.11,2.25 10.68,-10.11l-62.12 49.98z"/>
     <path class="fil3 str2" d="M1990.88 3427.99c6.72,58.76 26.51,72.76 47.79,112.67 15.61,29.28 30.27,87.76 45.97,109.4 15.48,-19.29 8.98,-195.45 -17.67,-227.12 -0.82,11.49 2.32,6.48 -6.94,10.22 -22.32,-0.12 -53.84,2.63 -69.15,-5.17z"/>
     <path class="fil3 str2" d="M2922.51 3930.43l-13.31 53.52c15.35,-6.29 21.6,5.14 36.98,15.49 16.33,10.99 21.6,17.05 35.02,30.43 13.53,13.48 49.51,52.63 48.54,73.94 -7.49,-2.42 -6.15,-3.89 -4.59,3.76 -7.88,-2.27 -5.24,-3.14 -5.24,5.86 7.95,-1.22 6.91,1.24 5.24,-5.86 7.6,1.92 6.54,3.67 4.59,-3.76 12.15,-3.55 -0.03,3.77 13.39,-7.4 2.41,-2 7.34,-7.78 9.93,-10.83 9.53,-11.19 11.38,-13.76 15.3,-25.48 2.43,-36.88 -70.65,-95.62 -97.5,-114.27 -13.94,-9.69 -30.58,-27.56 -48.35,-15.39z"/>
     <path class="fil3 str2" d="M1887.64 2258.02c-6.92,8.52 1.2,11.23 -20.1,-30.89l-18.7 -41.02c-4.22,61.46 0.42,132.97 -2.85,197.16 -3.16,61.76 -12.12,135.89 -8.81,198.17 0.75,-0.94 1.7,-3.66 1.99,-3.02 3.68,8.09 29.04,-139.96 31.99,-154.18 5.43,-26.09 13.24,-51.25 17.91,-77.01 3.67,-20.26 6.42,-60.96 1,-82.29l-2.42 -6.93z"/>
     <path class="fil3 str2" d="M2909.2 3983.94c-2.99,17.24 -0.4,6.1 -6.07,10.21l-6.24 50.32c12.87,5.24 38.1,33.43 49.35,44.97 20.7,21.24 29.15,32.78 32.36,71.84 7.1,-5.82 -0.83,1.55 7.49,-6.71l33.82 -41.16c0,-9 -2.63,-8.13 5.24,-5.86 -1.56,-7.66 -2.9,-6.18 4.59,-3.76 0.97,-21.31 -35.01,-60.46 -48.54,-73.94 -13.43,-13.38 -18.69,-19.44 -35.02,-30.43 -15.38,-10.35 -21.63,-21.78 -36.98,-15.49z"/>
     <path class="fil3 str2" d="M2798.44 4330.29c-12.69,11.47 -17.36,28.17 -34.22,44.97 -10.43,10.39 -16.79,12.29 -19.19,21.97 -5.57,12.36 0.8,7.41 -10.68,10.11 8.97,2.16 17.22,3.66 26.44,6.35 1.09,0.32 2.16,0.67 3.22,1.02 1.02,0.33 2.04,0.79 3.04,1.13 10.85,3.69 -2.65,0.31 8.78,3.3 6.67,1.75 10.94,1.77 18.14,1.93 24.87,0.54 62.12,2.44 78.07,-6.03l34.52 -110.22c-38.44,26.38 -4.08,6.07 -42.31,23.53 -18.24,8.33 4.43,6.11 -24.52,8.76 -50.17,4.59 -38.3,-3.2 -41.28,-6.8z"/>
     <path class="fil3 str2" d="M3642.31 3093.13c28.61,29.49 51.74,48.39 76.51,84.24 9.75,14.1 21.25,33 30.7,51.31 9.14,17.72 14.9,36.81 24.71,53.07 3.86,-67.96 -36.53,-226.41 -70.79,-253.21 2.2,16.01 2.36,8.32 -7.78,21.91 -12.87,17.24 -31.86,39.16 -53.35,42.67z"/>
     <path class="fil3 str2" d="M2147.15 4336.41l2.13 12.23c19.91,4.54 29.53,10.65 45.93,16.21 15.59,5.29 32.48,8.59 49.55,12.26 -2.35,-43.08 -2.08,-83.39 8.36,-119.28 -7.27,5.03 -0.99,3.57 -12.86,4.65 -8.36,0.75 -8.33,-0.52 -13.36,-2.18 -16.63,-5.52 -52.72,-18.69 -52.19,-37 -7.86,13.54 -11.25,42.82 -14.75,56.24 -4.93,18.92 -11.87,38.57 -12.81,56.88z"/>
     <path class="fil3 str2" d="M2216.61 1826.42c-22.68,10.8 -26.75,23.6 -73.13,32.87 -34,6.8 -58.63,8.07 -86.21,24.88 -46.17,28.13 -76.66,65.17 -80.45,139.47 10.75,-8.97 23.13,-32.92 31.06,-45.44l1.08 6.58c4.13,-5 1.66,0.22 4.99,-8.41l8.71 -28.62c32.16,-67.8 199.03,-31.41 238.79,-126.3l-40.08 1.22c0.42,5.83 1.57,4.14 -4.75,3.75z"/>
     <path class="fil3 str2" d="M2355.33 2082.63c-3.33,17.11 13.29,28.53 31.4,35.56 13.05,5.07 12.72,4.27 29.75,7.95 21.59,4.66 9.69,6.24 25.8,10.51 10.66,2.83 60.87,2.42 72.32,0.24 6.01,-1.15 18.64,-4.78 29.18,-7.69 19.94,-5.51 8.29,-6.66 26.17,-11.5l-5.19 -4.58c-0.58,-0.46 -3.96,-3.09 -5.09,-3.84l-34.54 -3.53 -5.27 -22.34c-28.6,0.67 -59.12,3.2 -82.16,-4.07 -31.08,-9.81 -28.62,-16.1 -51.54,-34.03 -9.63,4.67 -27.18,29.27 -30.83,37.32z"/>
     <path class="fil3 str2" d="M2554.95 1714.12c-12.45,10.67 -21.02,19.33 -27.12,37.36 55.12,-10.71 137.67,79.72 149.18,124.11 9.54,36.78 8.71,16.86 8.43,59.72l24.26 -96.8c-14.15,-12.01 -6.83,-8 -15.58,-23.72 -4.77,-8.56 -8.55,-11.56 -14.85,-18.03 -37.45,-38.51 -64.3,-72.12 -119.61,-86.98 0.65,5.89 1.76,4.03 -4.71,4.34z"/>
     <path class="fil3 str2" d="M3402.35 4435.89l7.23 23.41 90.24 -0.26c3.05,-0.54 6.56,-5.79 22.54,-9.87l33.93 -10.92c-47.91,-11.69 -35.58,-26.74 -59.31,-57.67l-104.28 0.27 9.65 55.04z"/>
     <path class="fil3 str2" d="M3153.44 3140.62l-2.45 3.51 2.45 -3.51c17.05,-0.6 38.52,-1.28 55.39,-0.22 21.52,1.36 26.42,7.61 45.33,12.2 -4.65,-75.37 7.66,-122.15 6.2,-152.56 -40.42,20.68 -41.76,22.68 -65.66,58.43 -14.98,22.4 -30.15,51.94 -41.26,82.16z"/>
     <path class="fil3 str2" d="M4134.02 2127.37c26.03,27.6 40.9,33.8 51.2,75.88 4.89,19.99 9.08,97.33 7.4,119.85 -34.37,31.81 -77.25,36.99 -134.12,40.65 62.89,35.67 158.98,-13.17 173.15,-64.87 10.74,-39.19 -5.71,-78.9 -20.18,-106.4 -13.52,-25.69 -36.72,-60.37 -55.16,-75.3 9.71,14.78 10.24,11.71 9.9,33.05 -10.14,-5.78 -19.69,-13.12 -32.2,-22.86z"/>
     <path class="fil3 str2" d="M2738.08 2901.25l-4.93 3.34 -4.69 3.59 -4.43 3.78 -4.45 3.73 -4.46 3.77 -4.28 3.8 -4.11 4.24 -3.97 4.51 -3.54 4.39 -2.52 0.89 2.52 -0.89 3.54 -4.39 3.97 -4.51 4.11 -4.24 4.28 -3.8 4.46 -3.77 4.45 -3.73 4.43 -3.78 4.69 -3.59 4.93 -3.34c12.77,0.19 16.06,3.62 30.18,16.59l47.32 47.02c11.29,11.34 15.5,11.35 16.71,30.01 21.73,-41.12 28.1,-164.58 -2.09,-199.95l-23.33 85.38c-23.76,-17.09 -54.84,4.46 -68.79,20.94z"/>
     <path class="fil3 str2" d="M1978.71 3309.89c2.38,3.47 2.74,1.8 4.48,8.82 1.09,4.41 0.99,7.36 1.32,11.76 25.75,1.59 11.49,9.78 71.49,13.13 -0.21,-46.78 -0.72,-86.7 3.18,-129.47 -14.71,23.26 3.26,13.27 -12.93,19.38 -12.3,4.65 -33.2,-8.25 -42.66,-13.67 -29.27,-16.77 -0.85,8.03 -17.62,-14.56 -7.34,17.9 -7.39,76.51 -7.27,104.6z"/>
     <path class="fil3 str2" d="M3848.94 3607.92l-0.29 9.87c14.95,4.38 31.73,21.53 39.96,33.81 9.34,13.95 12.5,37.6 8.62,59.83 -5.91,33.84 -35.97,61.95 -77.45,62.77 -3.2,-4.86 -6.77,6.44 -1.6,-6.63 -10.85,6.36 -9.09,6.82 -16.12,16.86 -7.33,10.46 -6.34,7.05 -10.89,17.3 -2.63,7.93 -2.51,4.23 -0.1,8.41 37.64,1.41 43.66,3.23 71.33,-9.92 39.71,-18.88 30.64,-23.24 49.52,-34 10.46,-67.37 3.51,-81.82 -5.57,-145.77 -7.55,-6.33 -12.65,-12.74 -20.46,-19.4 -13.21,-11.27 -13.96,-7.09 -29.19,-13.52 -4.07,7.04 -7.23,19.12 -7.76,20.38z"/>
     <path class="fil3 str2" d="M4264.22 2388.93c-7.69,20.98 -15.38,130.93 -11.77,156.68 6.84,48.79 46.37,80.36 97.86,84.13l-5.77 -3.57c-46.75,-26.34 -65.64,-33.44 -59.82,-115.7 3.84,-54.36 18.6,-110.94 15.41,-166.62 -5.53,7.66 -10.3,14.87 -15.82,23.48 -2.98,4.64 -4.79,8.34 -8.43,12.26 -6.15,6.63 -3.4,3.83 -11.66,9.34z"/>
     <path class="fil3 str2" d="M3819.75 1952.38c23.12,23.76 135.27,23.33 216.5,87.19 8.7,6.84 15.68,14.84 24.72,20.19 1.63,-30.53 -0.66,-22.9 -8.92,-32.26l-6.66 -8.7c-14.42,-22.75 -145.17,-92.73 -184.12,-93.19 -11.2,5.79 -13.53,4.24 -24.96,11.07 -8.19,4.9 -12.95,7.28 -16.57,15.69z"/>
     <path class="fil3 str2" d="M3721.93 3764.53c-20.77,4.37 -35.27,9.51 -61.03,8.47 -16.8,4.78 -13.48,5.29 -30.08,-0.24l-3.51 -3.15c-28.15,-1.75 -36.63,-10.53 -52.87,-21.65 7.71,47.47 28.13,77.94 69.55,90.88 62.57,19.56 76.35,-17.86 77.94,-74.3z"/>
     <path class="fil3 str2" d="M2947.99 3168.75l-3.99 4.05 -4.07 4.29 -3.74 4.14 -3.86 4.65 -4.45 3.74 -4.31 3.78 -4.12 3.93 -2.71 3.96 2.71 -3.96 4.12 -3.93 4.31 -3.78 4.45 -3.74 3.86 -4.65 3.74 -4.14 4.07 -4.29 3.99 -4.05c19.58,-0.28 33.89,5.63 47.16,11.4 0.6,0.26 1.75,0.72 2.35,1.03 5.68,2.92 1.18,0.14 6.99,4.65l41.31 41.24c10.77,14.73 8.26,26.6 16.42,39.44 8.79,-18.85 19.17,-75.65 12.95,-95.71 -12.52,-5.92 -11.83,-7.16 -21.86,-17.12 -6.59,-6.53 -10.23,-10.31 -17.61,-14.95 -10.21,-6.42 -32.98,-19.13 -46.97,-21.74 -6.89,7.43 -12.64,16.54 -20.84,26.91 -5.29,6.69 -13.39,16.12 -19.9,24.86z"/>
     <path class="fil3 str2" d="M3895.93 4124.34l8.57 3.65c6.92,-1.54 5.1,-2.55 3.73,4.72l2.97 5.7 2.68 4.83 3.85 4.37 6.21 0.77c2.6,-33.96 27.82,-53.57 46.55,-72.13 13.29,-13.17 15.75,-17.37 33.93,-26.8 23.87,-12.39 19.66,-7.52 48.94,-13.3 -3.45,9.06 -5.07,6.84 4.57,6.84 -0.11,-9.93 3.18,-9.91 -4.57,-6.84 -0.33,-14.68 -2.91,-15.1 -7.72,-27.98 -7.64,0 -5.63,1.53 -3.45,-6.44 -42.6,-0.02 -70.1,19.9 -92.27,41.67 -21.85,21.45 -51.88,41.48 -53.97,80.97z"/>
     <path class="fil3 str2" d="M1976.82 2023.64c-0.2,80.61 3.39,116.59 20.03,193.89l15.19 43.2c0.78,0.87 1.88,1.05 2.26,2.67 2.69,11.51 0.11,0.1 4.42,5.24 9.47,11.31 9.65,14.9 14.87,12.21 1.24,-29.79 -20.79,-97.68 -25.11,-137.53 -2.9,-26.65 -2.87,-53.07 -2.81,-80.08 0.06,-26.17 6.01,-55.1 3.29,-78.47l-1.08 -6.58c-7.93,12.52 -20.3,36.47 -31.06,45.44z"/>
     <path class="fil3 str2" d="M3818.17 3767.58c-5.16,13.07 -1.6,1.77 1.6,6.63 41.48,-0.82 71.54,-28.93 77.45,-62.77 3.88,-22.23 0.72,-45.88 -8.62,-59.83 -8.23,-12.28 -25.01,-29.43 -39.96,-33.81 0.18,24.41 -3.02,60.12 -7.57,83.02 -4.86,24.5 -20.42,46.3 -22.91,66.76z"/>
     <path class="fil3 str2" d="M1990.88 3427.99c15.31,7.8 46.82,5.05 69.15,5.17 9.27,-3.74 6.12,1.27 6.94,-10.22l-10.95 -79.35c-60,-3.35 -45.74,-11.54 -71.49,-13.13 -0.34,-4.39 -0.23,-7.35 -1.32,-11.76 -1.74,-7.03 -2.1,-5.35 -4.48,-8.82l12.16 118.1z"/>
     <path class="fil3 str2" d="M2888.97 3440.07c8.35,17.73 33.57,53.09 48.21,66.52 33.48,-1.05 50.84,-7.47 78.56,-13.69l20.25 -101.09c-22.36,37.87 -55.46,54.86 -102.06,56.32 -19.06,0.6 -35.07,-0.75 -44.96,-8.06z"/>
     <path class="fil3 str2" d="M3864 3834.43c-24,13.34 -13.25,13.45 -52.49,12.92 -20.67,-0.28 -38.03,-2.01 -51.24,-8.65l20.72 -27.29c-8.12,6.95 -14.13,15.92 -20.52,21.93 -16.74,15.76 -53.41,30.68 -44.23,73.21 28.34,11.05 69.16,7.34 95.57,-9.49 12.71,-8.1 17.6,-15.19 26.25,-31.08 11.74,-21.58 14.01,-16.62 25.94,-31.54z"/>
     <path class="fil3 str2" d="M2041.55 2733.85l118.27 0.56 2.29 -48.51c-21.73,-17.28 -83.79,-8.81 -118.61,-8.66l-1.95 56.61z"/>
     <path class="fil3 str2" d="M2733.15 2904.59l-4.69 3.59 -4.43 3.78 -4.45 3.73 -4.46 3.77 -4.28 3.8 -4.11 4.24 -3.97 4.51 -3.54 4.39 -2.52 0.89 -5.18 11.58 -4.31 4.07 4.31 -4.07c23.74,-3.28 31.43,6.32 43.14,21.18 29.36,-3.24 25.41,-14.15 67.74,-5.01 -9.87,16.12 -17.77,16.58 -24.33,33.73 -5.7,-0.48 -4.18,-1.65 -3.75,4.32l-5.12 4.03c6.71,0 5.6,1.94 5.12,-4.03l3.75 -4.32c8.33,4.67 10.72,8.24 15.96,16.39 6.43,9.99 8.44,13.11 8.26,29.01 11.99,-11.07 23.98,-29.32 29.99,-49.3 -1.2,-18.66 -5.41,-18.67 -16.71,-30.01l-47.32 -47.02c-14.12,-12.98 -17.41,-16.41 -30.18,-16.59l-4.93 3.34z"/>
     <path class="fil3 str2" d="M2848.26 2190.47l-9.14 -12.64c29.24,-19.53 34.13,-34.75 59.55,-36.49 -23.73,-12.1 -65.76,-14.45 -94.6,-22.32 -32.52,-8.87 -58.63,-20.56 -87.32,-29.46 16.16,60.08 80.82,74.65 131.51,100.91z"/>
     <path class="fil3 str2" d="M3150.99 3144.12l-17.02 51.27c58.7,-2.16 95.55,-1.35 132.8,20.57l-12.61 -63.36c-18.9,-4.59 -23.8,-10.85 -45.33,-12.2 -16.87,-1.06 -38.34,-0.38 -55.39,0.22l-2.45 3.51z"/>
     <path class="fil3 str2" d="M2177.95 2416.66c8.14,0.57 17.86,1.48 25.95,1.48 0.77,-0 11.87,-0.55 12.08,-0.6 12.81,-2.92 6.19,1 13.26,-6.91 -11.47,-18.54 -14.63,-13.75 -27.06,-27.2 -75.38,-36 -36.76,-15.37 -101.87,-32.9 -40.93,-11.02 -44.36,-30.05 -57.54,-56.2 -0.59,-1.17 -2.38,-4.62 -3.05,-5.69 -4.17,-6.66 -1.2,-3.16 -6.12,-7.78 -5.22,2.69 -5.41,-0.9 -14.87,-12.21 -4.31,-5.15 -1.73,6.26 -4.42,-5.24 -0.38,-1.62 -1.48,-1.8 -2.26,-2.67 21.36,73.01 90.29,127.02 165.91,155.93z"/>
     <path class="fil3 str2" d="M3392.7 4380.85l104.28 -0.27 -21.49 -56.93c-20.14,-0.18 -41.01,1.7 -60.9,-0.98 -2.6,-0.35 -22.15,-3.89 -27.08,-5.59 -21.55,-7.41 -8.89,-2.94 -19.06,-12.84 3.45,11.24 7.55,23.98 13,39.4 5.27,14.91 7.28,20.67 11.25,37.21z"/>
     <path class="fil3 str2" d="M2174.71 4223.29c-0.53,18.31 35.56,31.49 52.19,37 5.03,1.66 5,2.94 13.36,2.18 11.88,-1.07 5.6,0.39 12.86,-4.65 6.78,-20.47 17.69,-33.76 23.75,-53.34 -39.45,7.79 -61.95,-24.13 -94.77,-30.51l-7.4 49.31z"/>
     <path class="fil3 str2" d="M4254.43 2234.88c8.33,61.91 21.02,83.2 9.79,154.05 8.25,-5.51 5.5,-2.71 11.66,-9.34 3.64,-3.92 5.46,-7.62 8.43,-12.26 5.52,-8.61 10.28,-15.82 15.82,-23.48 -2.24,-52.49 -15.26,-163.5 -34.42,-186.79 6.1,52.05 -9.59,75.41 -9.62,75.35 -0.2,-0.58 -1.02,1.7 -1.65,2.47z"/>
     <path class="fil3 str2" d="M2221.36 1822.67c-6.09,-0.54 -4.75,-2.06 -4.75,3.75 6.32,0.39 5.17,2.08 4.75,-3.75l40.08 -1.22c24.11,-28.34 24.48,-139.03 172.12,-116.04 -46.62,-28.06 -114.47,-22.22 -139.95,4.81 -8.48,9 -24.26,44.57 -32.36,57.95 -17.43,28.8 -30.35,38.54 -39.89,54.5z"/>
     <path class="fil3 str2" d="M2128.53 2195.4c6.35,-0.98 5.09,-2.6 5.05,3.34 6.43,-0.63 4.57,-1.92 4.57,4.96 37.39,33.28 73.28,28.68 93.54,81.74 8.92,6.31 -1.87,0.91 12.93,4.94 5.13,-5.18 2.29,0.15 4.05,-9.06 -3.86,-15.5 -12.18,-39.61 -22.24,-52.15 -12.21,-15.21 -25.77,-23.4 -34.43,-39.85 -11.33,-4.01 -20.37,-10.83 -32.72,-16.17 -12.46,-5.39 -5.24,-1.2 -16.14,-8.45 -10.27,-6.83 -7.81,-6.34 -17.7,-10.49 -6.63,0.57 -5.54,2.38 -4.93,-3.67 -6.7,5.99 -5.18,-7.93 -4.99,11.39 0.19,18.89 -0.29,2.39 4.46,12.86 3.51,7.73 5.61,12.29 8.54,20.61z"/>
     <path class="fil3 str2" d="M2988.73 3116.99c13.98,2.61 36.76,15.32 46.97,21.74 7.38,4.64 11.03,8.42 17.61,14.95 10.03,9.95 9.34,11.2 21.86,17.12 -7.49,-36.03 -23.74,-108.69 -35.56,-138.17 -10.05,12.45 -16.45,27.76 -25.22,42.5 -8.17,13.74 -18.19,26.67 -25.67,41.85z"/>
     <path class="fil3 str2" d="M2895.98 3021.29c-9.85,45.37 -46.46,76.94 -65.4,110.68 7.28,8.13 -10.42,6.3 12.92,6.84l23.06 -0.01c13.85,-10.6 38.74,-39.54 51.75,-56.28 1.7,-25.87 1.38,-72.4 -22.33,-61.22z"/>
     <path class="fil3 str2" d="M4145.38 2519.91c-2.53,31.62 46.53,77.21 67.77,83.04l41.09 -0.55c-6.53,-7.71 -6.14,-6.82 -11.15,-14.75 -2.56,-3.09 -4.72,-6.49 -7.36,-9.15 -0.53,-0.54 -1.48,-1.46 -2.04,-1.98l-6.66 -5.07c-34.52,1.65 -63.3,-36.53 -47.47,-69.47 -3.7,10.65 -6.05,8.37 4.8,8.37 -0.43,-9.57 2.52,-8.05 -4.8,-8.37l-4.48 -40.57 -0.5 -6.34c-16.82,24.81 -24.83,22.57 -29.21,64.85z"/>
     <path class="fil3 str2" d="M3791.15 3801.74c-4.5,3.58 -4.88,3.75 -10.16,9.66l-20.72 27.29c13.21,6.64 30.58,8.38 51.24,8.65 39.24,0.53 28.49,0.43 52.49,-12.92 25.36,-17.19 38.31,-33.47 47.91,-68.19 -18.88,10.76 -9.81,15.12 -49.52,34 -27.67,13.15 -33.69,11.33 -71.33,9.92 -2.42,-4.19 -2.54,-0.48 0.1,-8.41z"/>
     <path class="fil3 str2" d="M2658.11 2997.81c-10.02,21.58 -18.39,44.58 -29.77,64.58 -12,21.08 -25.88,36.74 -32.09,61.29 34.99,-11.44 92.54,-84.76 99.41,-104.72l2.06 -5.44c1.35,-9.71 1.59,-5.35 -0.28,-12.45 -15.52,-6.54 -25.32,-12.87 -39.34,-3.26z"/>
     <path class="fil3 str2" d="M1934.27 2438.52c-3.07,31.63 3.64,66.83 8.5,98.51 4.98,32.42 16.01,60 15.11,90.34 -3.82,23.25 1.99,7.22 -7.14,11.56 13.69,1.23 29.02,-18.27 33.43,-32.9 4.16,-44.8 -37.7,-101.18 -39.71,-161.93l-8.35 -51.45 -1.84 45.87z"/>
     <path class="fil3 str2" d="M4038.06 2210.43l-14.77 11.18c-67.11,43.87 -104.31,-34.6 -120.09,-51.79 -0.64,-0.7 -1.73,-1.83 -2.68,-2.66l13.2 51.74c17.56,15.71 38.22,35.43 78.29,33.96 42.2,-1.54 51.73,-21.09 74.62,-37.63 5.34,-19.36 12.49,-49.17 -2.37,-66.66 -0.31,33.07 -9.99,56.13 -33.18,73.15l6.99 -11.29z"/>
     <path class="fil3 str2" d="M2528.57 3314.56c-7.17,-3.82 -11.81,-6.17 -18.68,-11.3 -7.84,-5.87 -7.29,-7.24 -15.59,-11.43l8.09 -14.12 -28.11 28.43c-16.47,17.66 -52.01,77.01 -58.12,103.05 18.28,-9.32 27.34,-22.02 43.47,-36.01l68.94 -58.61z"/>
     <path class="fil3 str2" d="M3738.67 1854.9l18.83 -16.46c-1.76,6.84 -2.89,5.23 4.21,4.04 -0.98,5.79 -2.17,4.32 3.76,4.27 -1.14,6.16 -2.52,4.76 3.59,4.65l3.71 4.45c-0.68,5.78 -1.97,4.32 3.84,4.41l3.53 4.58c-0.72,5.96 -2.02,4.48 4,4.36l4.33 3.88 4.29 3.9 4.32 3.9 0.37 3.71 3.98 0.15 0.75 3.32 4.2 0.19 1.6 3.78 2.31 0.21 4.16 3.66 -4.16 -3.66 -3.9 -3.99 -4.96 -3.51 -4.35 -3.86 -4.32 -3.9 -4.29 -3.9 -4.33 -3.88 -4 -4.36c0.69,-5.82 2.09,-4.48 -3.53,-4.58l-3.84 -4.41c0.66,-5.9 2.06,-4.56 -3.71,-4.45 0.79,-6.03 2.24,-4.7 -3.59,-4.65 1.13,-6.67 2.69,-5.56 -3.76,-4.27 0.97,-6.59 2.36,-5.23 -4.21,-4.04 -4.23,-13.07 -0.46,-6.07 -11.65,-17.19 -5.93,-5.89 -10.76,-9.87 -17.23,-15.54 -44.77,-39.33 -106.81,-40.03 -137.99,-9.89 96.95,2.08 94.75,-1.79 143.56,54.2l4.48 4.87z"/>
     <path class="fil3 str2" d="M2637.06 3153.02c-16.04,11.9 -31.38,29.15 -45.47,44.73l-43.44 42.48c-5.99,12.02 -5.29,7.02 -12,17.18 19.8,13.69 14.67,17.06 49.94,16.25 13.85,-10.38 22.45,-16.59 36.82,-28.04 10.64,-8.48 7.09,-4.78 16.86,-16.04 0.56,-0.64 1.27,-1.63 1.84,-2.26l4 -4.24c39.62,-38.13 34.68,-27.85 73.45,-76.91 -9.34,4.94 -2.44,0.45 -8.93,5.59 -1,0.79 -3.74,3.3 -4.61,4.19 -4.43,4.52 -5.29,6.88 -8.69,11.88 -22.07,32.5 -43.7,40.16 -62.54,61.02 -30.21,-0.24 -32.38,1.55 -53.74,-8.59 8.84,-25.35 38.01,-43.19 56.51,-67.26z"/>
     <path class="fil3 str2" d="M3967.78 1755.51c3.9,7.52 7.81,13.05 12.31,20.49 5.15,8.52 5.99,11.02 11.18,21.31 8.43,16.68 13.53,34.47 26.31,45.16 8.82,-7.22 -1.06,-3.38 15.47,-4.83 5.95,-0.52 17.02,0.46 23.94,0.35 -2.14,7.35 -4.28,6.54 2.74,5.36 -2.53,8.17 -4.58,7.05 3.54,5.52 -2.24,7.83 -3.06,5.15 5.96,5.15 -1.51,-7.71 0.95,-6.69 -5.96,-5.15 1.82,-7.74 3.86,-6.63 -3.54,-5.52 2.45,-7.54 4.63,-6.75 -2.74,-5.36l-49.17 -80.58c-7.41,0 -5.8,1.7 -4.07,-5.71l-2.2 -5.6c-15.18,0.69 -27.49,-2.31 -36.96,4.43l3.18 4.98z"/>
     <path class="fil3 str2" d="M1957.87 2627.38c-0.81,0.81 -2.01,0.92 -2.42,2.44l-24.77 17.59c-25.86,12.99 -81.21,26.83 -92.19,39.42 -6,6.7 4.55,10.27 -5.44,5.75l24.5 4.02c14.31,-1.53 102.88,-27.24 120.39,-50.96 6.6,-8.93 11.13,-21.33 9.46,-32.61 -1.33,-8.99 -0.05,-2.14 -3.23,-6.98 -4.41,14.63 -19.74,34.13 -33.43,32.9 9.13,-4.34 3.32,11.69 7.14,-11.56z"/>
     <path class="fil3 str2" d="M3980.38 2079.97c16.39,17.27 32.16,29.89 47.18,54.22 19.01,30.8 21.14,42.13 10.51,76.24l-6.99 11.29c23.19,-17.02 32.87,-40.08 33.18,-73.15 0.02,-16.17 -14.5,-34.53 -22.72,-44.76 -10.69,-13.3 -27.95,-19.42 -35.49,-32.62l-25.67 8.79z"/>
     <path class="fil3 str2" d="M3913.72 2218.9c10.53,28.8 37.2,68.73 77.49,65.02 34.08,-3.14 64.73,-38.54 75.42,-68.69 -22.88,16.54 -32.42,36.09 -74.62,37.63 -40.08,1.46 -60.73,-18.25 -78.29,-33.96z"/>
     <path class="fil3 str2" d="M2901.94 2984.8l-5.96 36.49c23.71,-11.18 24.04,35.35 22.33,61.22 12.19,-10.67 31.08,-35.63 34.43,-56.35 0.07,-30.81 -27.1,-47.93 -43.61,-62.91 -0.21,0.82 -2.47,10.61 -2.59,10.98 -2.54,7.57 -3.19,8.14 -4.6,10.56z"/>
     <path class="fil3 str2" d="M2774.33 3003.09c0.48,5.96 1.59,4.03 -5.12,4.03 -10.57,8.74 -8.93,10.78 -16.26,20l-15.93 16.98c-0.26,-0.65 -1.09,1.56 -1.54,2.39 -5.91,-0.6 -4.64,-1.92 -3.82,3.95l-3.92 4.7 -3.73 4 -3.38 4.95 -3.18 4.8c-5.72,0.67 -4.34,-0.8 -3.03,5.17 -6.15,0.06 -4.71,-1.41 -3.78,4.86 -6.98,-1.03 -4.5,-2.23 -6.06,5.51 8.52,0 7.07,2.36 6.06,-5.51 6.81,1.01 5.09,2.2 3.78,-4.86l3.03 -5.17 3.18 -4.8 3.38 -4.95 3.73 -4c6.09,-0.12 4.73,1.4 3.92,-4.7l3.82 -3.95c10.23,-4.47 7.59,-11.28 18.04,17.5 5.87,16.17 4.54,18.29 4.43,39.07 14.8,-12.32 35.46,-43.56 44.35,-58.88 0.19,-15.9 -1.83,-19.02 -8.26,-29.01 -5.24,-8.15 -7.63,-11.72 -15.96,-16.39l-3.75 4.32z"/>
     <path class="fil3 str2" d="M4118.53 4354.84l27.63 24.08c17.52,11.12 10.87,5.39 23.42,18.37l11.16 10.34c19.69,-6.27 14.99,-11.58 33.63,-20.35 -6.97,-11.44 -13,-21.24 -19.34,-32.8 -3.02,-5.5 -5.45,-10.21 -8.92,-15.65 -6.85,-10.74 -3.69,-7.61 -11.84,-13.91 -0.74,19.42 -35.79,32.22 -36.36,32.34l-15.89 -1.38c-0.61,-1.33 -2.33,-0.71 -3.5,-1.03z"/>
     <path class="fil3 str2" d="M2937.17 3506.59c9.08,17.89 47.8,59.18 64.18,69.74l14.39 -83.43c-27.72,6.22 -45.09,12.64 -78.56,13.69z"/>
     <path class="fil3 str2" d="M3578.4 3565.94l-3.1 71.13 -0.63 23.17c0.96,0.66 2.37,0.56 2.78,2.13 0.4,1.53 24.86,23.78 24.94,31.16l2.28 -13.53c5.83,-29.63 -2.59,-74.97 -2.65,-107.33 -5.39,-9.5 -3.79,-10.48 -5.38,-24.28l-18.24 17.55z"/>
     <path class="fil3 str2" d="M3771.95 1911.9c6.26,21.03 25.84,32.22 47.8,40.48 3.62,-8.42 8.38,-10.8 16.57,-15.69 11.43,-6.83 13.77,-5.28 24.96,-11.07 -5.96,-6.45 -0.05,-2.02 -10.23,-8.63 -5.25,-3.41 -7.8,-3.88 -13.17,-6.92 -7.96,-4.51 -15.65,-10.2 -23.44,-14.16l-4.16 -3.66 -2.31 -0.21 -5.8 -3.98 -4.73 -3.47c-10.94,5.27 -21.68,15.04 -25.5,27.32z"/>
     <path class="fil3 str2" d="M4169.59 4397.29c6.55,17.26 13.74,40.88 15.14,65.3 32.72,-3.59 39.06,-20.25 59,-30.54 -2.59,-4.8 -3.79,-7.44 -6.77,-13.18 -4.41,-8.52 -6.49,-10.73 -11.13,-16.98 -1.13,-1.53 -4.79,-6.35 -5.51,-7.28 -5.92,-7.62 -1.72,-2.78 -5.94,-7.33 -18.65,8.77 -13.94,14.08 -33.63,20.35l-11.16 -10.34z"/>
     <path class="fil3 str2" d="M2900.51 2932.04c35.94,8 39.43,25.42 62.24,41.54 -8.72,-45.06 -46.64,-98.3 -74.08,-110.99l11.84 69.44z"/>
     <path class="fil3 str2" d="M2128.53 2195.4l5.05 3.34 4.57 4.96c0,-6.87 1.87,-5.59 -4.57,-4.96 0.05,-5.94 1.3,-4.31 -5.05,-3.34 -2.92,-8.32 -5.03,-12.88 -8.54,-20.61 -4.75,-10.47 -4.28,6.03 -4.46,-12.86 -0.19,-19.31 -1.72,-5.39 4.99,-11.39 -0.62,6.05 -1.7,4.24 4.93,3.67 0,-6 1.36,-4.45 -4.93,-3.67 -16.05,-40.76 -22.66,-25.36 2.66,-56.79 7.47,-9.27 3.82,-5.43 5.37,-9.13l-1.69 -16.21c11.4,-2.41 7.93,-3.31 10.56,-5.47 -23.12,9.34 -55.04,33.33 -55.02,61.78 0.02,31.03 30.4,63.87 46.14,70.68z"/>
     <path class="fil3 str2" d="M2502.39 3277.71l-8.09 14.12c8.29,4.19 7.75,5.57 15.59,11.43 6.87,5.14 11.51,7.49 18.68,11.3 10.42,-5.27 19.22,-12.53 29.04,-19.16 5.78,-3.9 9.8,-6.6 14.45,-10.06l14.03 -11.69c-35.27,0.81 -30.14,-2.56 -49.94,-16.25 6.7,-10.16 6,-5.16 12,-17.18 -9.14,8.5 -14.21,11.64 -21.67,18.96 -8.33,8.18 -2.16,3.21 -11.33,9.58 -6.42,4.47 -5.73,2.98 -12.76,8.94z"/>
     <path class="fil3 str2" d="M3501.27 3560.44l-13.45 104.91 24.3 -1.39c1.15,-19.73 -1.65,0.09 7.12,-9.12l1.17 -102.65 -15.5 -0.19c3.76,10.32 6.49,8.45 -3.64,8.45z"/>
     <path class="fil3 str2" d="M2687.21 2952.94l-29.1 44.87c14.02,-9.61 23.82,-3.28 39.34,3.26 1.87,7.11 1.63,2.75 0.28,12.45l-2.06 5.44 2.06 -5.44c15.95,-10.01 28.78,-32.35 36.94,-43.47 -11.71,-14.86 -19.4,-24.46 -43.14,-21.18l-4.31 4.07z"/>
     <path class="fil3 str2" d="M3687.83 3699.6c34.51,-14.42 17.93,-10.87 41.09,-30.83l12.93 -85.02c-28.79,21.89 -47.89,83.18 -54.02,115.85z"/>
     <path class="fil3 str2" d="M2901.94 2984.8c1.41,-2.42 2.06,-2.99 4.6,-10.56 0.12,-0.38 2.38,-10.16 2.59,-10.98 16.51,14.97 43.68,32.1 43.61,62.91 13.33,-12.52 11.11,-31.37 10,-52.59 -22.8,-16.12 -26.29,-33.54 -62.24,-41.54l1.44 52.77z"/>
     <path class="fil3 str2" d="M3574.43 3747.95c16.24,11.13 24.72,19.9 52.87,21.65l3.51 3.15 -3.51 -3.15c-12.3,-21.42 -8.81,-29.35 -15.9,-48.28 -15.72,-1.43 -24.42,-8.72 -31.7,-18.94 -7.4,-10.37 -5.27,-27.31 -5.03,-42.15l0.63 -23.17c-11,11.56 -3.46,91.06 -0.86,110.88z"/>
     <path class="fil3 str2" d="M4076.52 2077.9c10.14,12.84 18.24,15.75 28.37,24.53 11.11,9.65 17.51,15.15 29.14,24.94 12.51,9.73 22.06,17.07 32.2,22.86 0.34,-21.34 -0.19,-18.27 -9.9,-33.05 -12.55,-18.04 -27.06,-28.97 -42.99,-44.04 -9.7,-9.17 -10.11,-14.67 -21.19,-23.53 -9.89,-7.91 -20.87,-13.03 -30.2,-18.45l36.47 24.56 0.26 34.31c-16.85,-5.54 -8.36,-0.64 -22.17,-12.13z"/>
     <path class="fil3 str2" d="M3848.94 3607.92c0.53,-1.26 3.69,-13.34 7.76,-20.38 15.23,6.43 15.98,2.25 29.19,13.52 7.81,6.67 12.91,13.07 20.46,19.4l-20.82 -67.34 -33.65 -8.84 -2.93 63.63z"/>
     <path class="fil3 str2" d="M2177.95 2416.66c20.61,14.56 36.86,18.39 49.79,36.71 15.85,22.45 14.73,39.08 23.79,65.95 3.71,-41.06 0.15,-84.18 -22.29,-108.69 -7.07,7.91 -0.45,4 -13.26,6.91 -0.22,0.05 -11.31,0.59 -12.08,0.6 -8.08,0.01 -17.81,-0.91 -25.95,-1.48z"/>
     <path class="fil3 str2" d="M3684.21 3733.81c-11.81,20.9 -7.95,26.82 -23.32,39.19 25.76,1.03 40.26,-4.1 61.03,-8.47l3 -56.29c-11.66,15.7 -15.94,22.13 -40.71,25.57z"/>
     <path class="fil3 str2" d="M3738.67 1854.9l13.45 30.13c6.36,13.09 8.25,17.43 19.82,26.87 3.82,-12.28 14.56,-22.05 25.5,-27.32l4.73 3.47 5.8 3.98 -1.6 -3.78 -4.2 -0.19 -0.75 -3.32 -3.98 -0.15 -0.37 -3.71 -4.32 -3.9 -4.29 -3.9 -4.33 -3.88c-6.02,0.12 -4.72,1.6 -4,-4.36l-3.53 -4.58c-5.81,-0.09 -4.52,1.37 -3.84,-4.41l-3.71 -4.45c-6.11,0.11 -4.73,1.51 -3.59,-4.65 -5.93,0.05 -4.73,1.52 -3.76,-4.27 -7.09,1.19 -5.97,2.8 -4.21,-4.04l-18.83 16.46z"/>
     <path class="fil3 str2" d="M2273.47 1922.06l12.82 -4.62c12.89,-0.35 6.93,-0.35 9.91,5.82l10.53 -15.35c8.93,-16.51 15.6,-23.57 42.09,-31.8 25.72,-7.99 54.38,-11.5 79.56,-20.5 -26.97,-2.3 -69.47,6.72 -93.84,14.52 -41.85,13.39 -45.92,20.64 -61.08,51.94z"/>
     <path class="fil3 str2" d="M2499.18 3825.23c13.17,-14.9 14.83,-24.67 13.82,-43.05 -8.08,0 -6.06,2.02 -6.06,-6.06 -19.39,-4.46 -34.64,-11.1 -60.88,-12.1 14.1,24.18 40.92,33.67 53.12,61.21z"/>
     <path class="fil3 str2" d="M4164.6 2428.63c2.53,7.48 4.24,6.37 -3.35,4.8 2.56,8.2 3.75,5.64 -5.25,6.5 -15.04,18.41 -26.82,59.52 -10.61,79.98 4.38,-42.28 12.39,-40.04 29.21,-64.85l0.5 6.34c3.51,-4.41 1.97,-1.45 5.02,-8.91 1.2,-2.92 3.04,-9.66 4.06,-12.98 2.97,-9.63 5.07,-13.96 8.48,-22.92 -15.61,5.31 -3.26,1.36 -13.38,6.74 -13.04,6.92 -4.83,3.23 -14.68,5.31z"/>
     <path class="fil3 str2" d="M1835.97 2840.58l5.13 2.04c-9.28,-31.1 -24.22,-83.89 -15.71,-116.88 -9.16,-0.27 -8.6,0.41 -18.07,-5.01 -22.73,25.67 18.37,96.29 28.65,119.85z"/>
     <path class="fil3 str2" d="M2222.8 2026.29c-8.25,4.34 -19.87,11.06 -28.56,16.52l-12.72 10.85c-9.43,8.81 -5.82,4.98 -10.89,15.74 40.98,-9.91 70.24,-15.65 87.04,-40.73 -6.98,-8.03 9.78,-6.97 -16.91,-7.35 -7.71,-0.11 -13.16,3.03 -17.95,4.96z"/>
     <path class="fil3 str2" d="M2273.47 1922.06l-22.09 53.99c2.25,0.01 16.24,-0.33 17.79,-0.01 11.48,2.37 4.75,-1.92 11.86,6.44 2.93,-3.68 1.64,2.04 7.06,-11.55 1.53,-3.86 3.22,-12.05 4.15,-16.34 2.83,-13.08 4.26,-18.37 3.97,-31.33 -2.98,-6.17 2.98,-6.17 -9.91,-5.82l-12.82 4.62z"/>
     <path class="fil3 str2" d="M3517.13 3685.33l-3.6 23.92 -30.58 -0.26c-1.29,33.09 -5.46,49.79 26.04,52.19 13.25,-29.44 8.07,-52.76 10.08,-89.24l-1.94 13.4z"/>
     <path class="fil3 str2" d="M2222.8 2026.29c4.79,-1.93 10.24,-5.08 17.95,-4.96 26.69,0.38 9.93,-0.68 16.91,7.35l14.79 -20.17c5.76,-10.21 7.64,-15.31 8.58,-26.03 -7.11,-8.36 -0.38,-4.07 -11.86,-6.44 -1.55,-0.32 -15.54,0.02 -17.79,0.01 -7.14,21.93 -4.8,20.43 -19.3,37.83 -5.91,7.1 -4.8,5.36 -9.28,12.41z"/>
     <path class="fil3 str2" d="M3687.83 3699.6c-0.05,10.85 -1.8,19.21 -3.61,34.21 24.77,-3.44 29.06,-9.87 40.71,-25.57l3.99 -39.47c-23.17,19.96 -6.58,16.4 -41.09,30.83z"/>
     <path class="fil3 str2" d="M4060.98 2059.76c3.03,5.51 -0.07,2.18 6.75,9.84 2.88,3.23 5.33,5 8.79,8.29 13.81,11.49 5.32,6.59 22.17,12.13l-0.26 -34.31 -36.47 -24.56c-5.39,-6.89 2.78,0.84 -4.56,-4.67 -4.87,-3.66 -5.09,-3.47 -11.99,-7.67l6.66 8.7c8.26,9.35 10.55,1.72 8.92,32.26z"/>
     <path class="fil3 str2" d="M3851.86 3544.29l33.65 8.84 -23.25 -63.78c-1.82,-4.11 -2.02,-5.04 -4.11,-8.66 -2.74,-4.76 -3.94,-5.48 -6.4,-7.89l0.11 71.5z"/>
     <path class="fil3 str2" d="M3980.38 2079.97l25.67 -8.79c-27.7,-17.96 -61.28,-34.84 -98.1,-41.17l72.44 49.96z"/>
     <path class="fil3 str2" d="M1934.27 2438.52l1.84 -45.87 8.35 51.45 0.49 -94.25 -1.03 -16.05 -10.71 1.4c-2.11,21.72 -10.64,90.59 1.06,103.32z"/>
     <path class="fil3 str2" d="M4227.04 2571.44c-7.11,-11.78 -14.72,-19.37 -22.94,-30.99 -6.53,-9.22 -12.81,-22.58 -19.73,-30.12 -10.85,0 -8.5,2.28 -4.8,-8.37 -15.83,32.95 12.95,71.12 47.47,69.47z"/>
     <path class="fil3 str2" d="M3611.4 3721.32c-0.69,-12.89 0.77,-30.7 -6.74,-41.33l-2.28 13.53c-0.08,-7.38 -24.54,-29.63 -24.94,-31.16 -0.41,-1.57 -1.82,-1.47 -2.78,-2.13 -0.23,14.84 -2.37,31.78 5.03,42.15 7.28,10.22 15.98,17.5 31.7,18.94z"/>
     <path class="fil3 str2" d="M1933.21 2335.2l10.71 -1.4 1.03 16.05 14.78 -101.26 1.75 -22.32c-15.51,26.83 -25.56,73.2 -28.27,108.92z"/>
     <path class="fil3 str2" d="M2811.09 3158.87l-1.39 8.15c3.91,1.88 -4.48,4.05 13.05,3.85 8.09,-0.1 7.69,-1.15 13.82,-3.37 6.11,-4.62 9.28,-7.68 15.43,-12.74 11.69,-9.63 7.19,-2.8 14.56,-15.97l-23.06 0.01c-23.34,-0.54 -5.64,1.29 -12.92,-6.84 -4.13,3.9 -1.41,0.9 -6.71,6.97 -0.64,0.73 -4.67,5.69 -5.58,6.96 -5.44,7.57 -3.74,4.61 -7.2,12.97z"/>
     <path class="fil3 str2" d="M2231.68 2285.43c5.21,16.59 13.03,28.59 16.09,50.26 9.05,12.19 13.63,41.74 15.31,58.04 2.51,-30.08 0.36,-89.87 -14.42,-112.41 -1.76,9.21 1.08,3.88 -4.05,9.06 -14.8,-4.03 -4.01,1.37 -12.93,-4.94z"/>
     <path class="fil3 str2" d="M3582.16 3515.92l-3.77 50.01 18.24 -17.55c1.59,13.8 -0.01,14.78 5.38,24.28l-2.54 -69.32c-16.19,4.55 -10.16,-0.83 -17.31,12.58z"/>
     <path class="fil3 str2" d="M1807.31 2720.73c9.46,5.42 8.91,4.74 18.07,5.01 12.3,-17.3 20.9,-13.93 32.17,-29.15l-24.5 -4.02c9.99,4.52 -0.56,0.95 5.44,-5.75 -10.22,5.09 -10.95,3.95 -20.41,12.47 -7.95,7.16 -9.75,9.54 -10.78,21.43z"/>
     <path class="fil3 str2" d="M2778.94 3199.32c4.53,1.14 7.69,1.8 15.71,3.57 10.99,-5.08 34.58,-26.94 41.92,-35.38 -6.13,2.22 -5.74,3.27 -13.82,3.37 -17.53,0.2 -9.13,-1.97 -13.05,-3.85l1.39 -8.15c-11.76,11.09 -23.75,26.06 -32.15,40.45z"/>
     <path class="fil3 str2" d="M2137.42 2062.94c-2.62,2.16 0.84,3.07 -10.56,5.47l1.69 16.21 42.07 -15.22c5.07,-10.76 1.46,-6.94 10.89,-15.74l12.72 -10.85c-17.07,5.05 -37.49,13.17 -56.82,20.12z"/>
     <path class="fil3 str2" d="M4254.25 2602.4l5.29 1.26 3.31 4.87 3.34 4.88 3.34 4.87c-8.71,4.91 -10.39,5.44 -22.89,5.92 5.41,6.16 5.1,6.62 14.51,11.57 5.06,2.66 9.63,4.06 16.98,7.12 13.74,5.71 24.19,11.33 38.9,14.68 -6.41,-7.47 -38.89,-35.5 -47.49,-39.29 1.08,-6.08 2.52,-4.72 -3.34,-4.87l-3.34 -4.88 -3.31 -4.87 -16.45 -16.02c5.01,7.93 4.62,7.05 11.15,14.75z"/>
     <path class="fil3 str2" d="M3582.16 3515.92c7.14,-13.41 1.12,-8.03 17.31,-12.58l-3.46 -101.36 -13.85 113.94z"/>
     <path class="fil3 str2" d="M3482.95 3708.98l30.58 0.26 3.6 -23.92 -26.37 -0.27 -2.94 -19.71c-5.53,14.81 -3.62,26.9 -4.86,43.63z"/>
     <path class="fil3 str2" d="M4246.64 2624.2c12.5,-0.48 14.18,-1.01 22.89,-5.92l-3.34 -4.87 -3.34 -4.88 -3.31 -4.87 -5.29 -1.26 -41.09 0.55c4.09,5.33 1.5,3.18 6.68,7.78 0.5,0.45 6.99,5.22 7.29,5.41 9.94,6.48 10.37,6.08 19.52,8.06z"/>
     <path class="fil3 str2" d="M4164.6 2428.63c-7.78,-2.75 -5.58,-3.29 -3.35,4.8 -7.47,-1.76 -4.61,-2.55 -5.25,6.5 9,-0.86 7.81,1.7 5.25,-6.5 7.59,1.58 5.88,2.68 3.35,-4.8 9.85,-2.08 1.64,1.62 14.68,-5.31 10.12,-5.37 -2.23,-1.43 13.38,-6.74l30.99 -40.35c-20.08,8.64 -52.27,34.39 -59.04,52.39z"/>
     <path class="fil3 str2" d="M2794.65 3202.89c-8.02,-1.77 -11.18,-2.43 -15.71,-3.57 -18.22,15.39 -29.5,35.66 -40.12,47.38 -5.51,6.08 -10.64,2.8 -3.01,8.93l58.84 -52.75z"/>
     <path class="fil3 str2" d="M3487.82 3665.35l2.94 19.71 26.37 0.27 1.94 -13.4 0.16 -17.1c-8.77,9.22 -5.97,-10.61 -7.12,9.12l-24.3 1.39z"/>
     <polygon class="fil3 str2" points="3506.34,3527.47 3521.32,3527.86 3518.82,3468.71 "/>
     <path class="fil3 str2" d="M3504.91 3551.99l-3.64 8.45c10.14,0 7.41,1.86 3.64,-8.45l15.5 0.19 0.91 -24.32 -14.98 -0.39 -1.43 24.52z"/>
    </g>
   </g>
  </g>
 </g>
</svg>
