<svg width="164" height="164" viewBox="0 0 164 164" fill="none" xmlns="http://www.w3.org/2000/svg">
<path fill-rule="evenodd" clip-rule="evenodd" d="M96.0831 15.3528C92.3958 0.215722 70.8542 0.215722 67.1669 15.3528C66.6164 17.6274 65.5366 19.7399 64.0154 21.5184C62.4943 23.2969 60.5747 24.6911 58.4129 25.5876C56.2511 26.484 53.9082 26.8575 51.5748 26.6774C49.2414 26.4974 46.9835 25.769 44.9849 24.5515C31.6718 16.4396 16.4374 31.6737 24.5494 44.9866C29.7893 53.5837 25.1413 64.8007 15.3603 67.178C0.213237 70.8556 0.213237 92.4066 15.3603 96.0744C17.6355 96.6256 19.7484 97.7063 21.5269 99.2286C23.3054 100.751 24.6992 102.672 25.5949 104.835C26.4905 106.998 26.8627 109.341 26.681 111.675C26.4993 114.009 25.769 116.267 24.5494 118.266C16.4374 131.579 31.6718 146.813 44.9849 138.701C46.9832 137.481 49.2413 136.751 51.5753 136.569C53.9093 136.388 56.2532 136.76 58.4161 137.655C60.5791 138.551 62.5 139.945 64.0223 141.723C65.5446 143.502 66.6254 145.615 67.1766 147.89C70.8542 163.037 92.4055 163.037 96.0734 147.89C96.6265 145.616 97.7083 143.504 99.231 141.727C100.754 139.95 102.674 138.557 104.836 137.662C106.999 136.766 109.342 136.394 111.675 136.574C114.009 136.755 116.266 137.484 118.265 138.701C131.578 146.813 146.813 131.579 138.701 118.266C137.483 116.267 136.755 114.009 136.574 111.676C136.393 109.343 136.766 107 137.661 104.837C138.557 102.675 139.95 100.755 141.727 99.2319C143.504 97.7093 145.616 96.6275 147.89 96.0744C163.037 92.3969 163.037 70.8459 147.89 67.178C145.614 66.6268 143.502 65.5461 141.723 64.0238C139.945 62.5015 138.551 60.5806 137.655 58.4177C136.759 56.2548 136.387 53.9109 136.569 51.577C136.751 49.243 137.481 46.9849 138.701 44.9866C146.813 31.6737 131.578 16.4396 118.265 24.5515C116.267 25.7711 114.009 26.5014 111.675 26.6831C109.341 26.8647 106.997 26.4926 104.834 25.597C102.671 24.7013 100.75 23.3075 99.2277 21.5291C97.7054 19.7506 96.6246 17.6377 96.0734 15.3625L96.0831 15.3528Z" fill="#4C2249"/>
<path d="M98.875 81.625C98.875 91.1519 91.1519 98.875 81.625 98.875C72.0981 98.875 64.375 91.1519 64.375 81.625C64.375 72.0981 72.0981 64.375 81.625 64.375C91.1519 64.375 98.875 72.0981 98.875 81.625Z" fill="#4C2249"/>
<path fill-rule="evenodd" clip-rule="evenodd" d="M96.0831 15.3528C92.3958 0.215722 70.8542 0.215722 67.1669 15.3528C66.6164 17.6274 65.5366 19.7399 64.0154 21.5184C62.4943 23.2969 60.5747 24.6911 58.4129 25.5876C56.2511 26.484 53.9082 26.8575 51.5748 26.6774C49.2414 26.4974 46.9835 25.769 44.9849 24.5515C31.6718 16.4396 16.4374 31.6737 24.5494 44.9866C29.7893 53.5837 25.1413 64.8007 15.3603 67.178C0.213237 70.8556 0.213237 92.4066 15.3603 96.0744C17.6355 96.6256 19.7484 97.7063 21.5269 99.2286C23.3054 100.751 24.6992 102.672 25.5949 104.835C26.4905 106.998 26.8627 109.341 26.681 111.675C26.4993 114.009 25.769 116.267 24.5494 118.266C16.4374 131.579 31.6718 146.813 44.9849 138.701C46.9832 137.481 49.2413 136.751 51.5753 136.569C53.9093 136.388 56.2532 136.76 58.4161 137.655C60.5791 138.551 62.5 139.945 64.0223 141.723C65.5446 143.502 66.6254 145.615 67.1766 147.89C70.8542 163.037 92.4055 163.037 96.0734 147.89C96.6265 145.616 97.7083 143.504 99.231 141.727C100.754 139.95 102.674 138.557 104.836 137.662C106.999 136.766 109.342 136.394 111.675 136.574C114.009 136.755 116.266 137.484 118.265 138.701C131.578 146.813 146.813 131.579 138.701 118.266C137.483 116.267 136.755 114.009 136.574 111.676C136.393 109.343 136.766 107 137.661 104.837C138.557 102.675 139.95 100.755 141.727 99.2319C143.504 97.7093 145.616 96.6275 147.89 96.0744C163.037 92.3969 163.037 70.8459 147.89 67.178C145.614 66.6268 143.502 65.5461 141.723 64.0238C139.945 62.5015 138.551 60.5806 137.655 58.4177C136.759 56.2548 136.387 53.9109 136.569 51.577C136.751 49.243 137.481 46.9849 138.701 44.9866C146.813 31.6737 131.578 16.4396 118.265 24.5515C116.267 25.7711 114.009 26.5014 111.675 26.6831C109.341 26.8647 106.997 26.4926 104.834 25.597C102.671 24.7013 100.75 23.3075 99.2277 21.5291C97.7054 19.7506 96.6246 17.6377 96.0734 15.3625L96.0831 15.3528Z" stroke="#FFBA8E" stroke-width="8"/>
<path d="M98.875 81.625C98.875 91.1519 91.1519 98.875 81.625 98.875C72.0981 98.875 64.375 91.1519 64.375 81.625C64.375 72.0981 72.0981 64.375 81.625 64.375C91.1519 64.375 98.875 72.0981 98.875 81.625Z" stroke="#FFBA8E" stroke-width="8"/>
</svg>
