<svg width="157" height="168" viewBox="0 0 157 168" fill="none" xmlns="http://www.w3.org/2000/svg">
<path d="M78.5 110.667C50.2407 110.667 25.1099 124.272 9.11033 145.386C5.66679 149.931 3.94502 152.203 4.00134 155.274C4.04485 157.646 5.53892 160.639 7.411 162.104C9.83411 164 13.192 164 19.9078 164H137.092C143.808 164 147.166 164 149.589 162.104C151.461 160.639 152.955 157.646 152.999 155.274C153.055 152.203 151.333 149.931 147.89 145.386C131.89 124.272 106.759 110.667 78.5 110.667Z" fill="#4C2249"/>
<path d="M78.5 84C100.655 84 118.615 66.0914 118.615 44C118.615 21.9086 100.655 4 78.5 4C56.3452 4 38.3852 21.9086 38.3852 44C38.3852 66.0914 56.3452 84 78.5 84Z" fill="#4C2249"/>
<path d="M78.5 110.667C50.2407 110.667 25.1099 124.272 9.11033 145.386C5.66679 149.931 3.94502 152.203 4.00134 155.274C4.04485 157.646 5.53892 160.639 7.411 162.104C9.83411 164 13.192 164 19.9078 164H137.092C143.808 164 147.166 164 149.589 162.104C151.461 160.639 152.955 157.646 152.999 155.274C153.055 152.203 151.333 149.931 147.89 145.386C131.89 124.272 106.759 110.667 78.5 110.667Z" stroke="#FFBA8E" stroke-width="8" stroke-linecap="round" stroke-linejoin="round"/>
<path d="M78.5 84C100.655 84 118.615 66.0914 118.615 44C118.615 21.9086 100.655 4 78.5 4C56.3452 4 38.3852 21.9086 38.3852 44C38.3852 66.0914 56.3452 84 78.5 84Z" stroke="#FFBA8E" stroke-width="8" stroke-linecap="round" stroke-linejoin="round"/>
</svg>
