<svg width="219" height="186" viewBox="0 0 219 186" fill="none" xmlns="http://www.w3.org/2000/svg">
<path d="M4 87.6873C4 87.8098 4 87.933 4 88.0567L4 88.2303L4 148.687L4 148.861C3.99996 153.844 3.99994 157.828 4.26288 161.046C4.53269 164.348 5.09917 167.196 6.43277 169.813C8.57269 174.013 11.9873 177.427 16.1871 179.567C18.8045 180.901 21.6517 181.467 24.954 181.737C28.1724 182 32.1559 182 37.1388 182H37.3125H143.57H143.744C148.727 182 152.711 182 155.929 181.737C159.231 181.467 162.079 180.901 164.696 179.567C168.896 177.427 172.31 174.013 174.45 169.813C175.784 167.196 176.35 164.348 176.62 161.046C176.883 157.828 176.883 153.844 176.883 148.861V148.687V88.2304V88.0566C176.883 83.0737 176.883 79.0902 176.62 75.8719C176.35 72.5695 175.784 69.7223 174.45 67.1049C172.31 62.9051 168.896 59.4905 164.696 57.3506C162.079 56.017 159.231 55.4505 155.929 55.1807C152.711 54.9178 148.727 54.9178 143.744 54.9178H143.57H131.082V26.8632V26.6697C131.082 23.0249 131.082 20.0159 130.865 17.6357C130.644 15.2124 130.16 12.8508 128.776 10.8321L125.516 13.067L128.776 10.8321C126.762 7.89351 123.642 5.89731 120.13 5.29963C117.717 4.88902 115.37 5.43979 113.077 6.25438C110.825 7.05452 108.093 8.31553 104.784 9.84295L104.608 9.92408L23.3527 47.4265C23.1255 47.5313 22.9015 47.6346 22.6803 47.7366C17.16 50.2822 13.4798 51.9793 10.7196 54.6768C8.28615 57.0551 6.42864 59.9582 5.28905 63.1643C3.99647 66.8008 3.99782 70.8535 3.99984 76.9325C3.99992 77.176 4 77.4228 4 77.6729V87.6873ZM37.139 54.9178C32.571 54.9178 28.8429 54.9177 25.7743 55.1203C26.0746 54.9813 26.3847 54.838 26.7051 54.6901L107.96 17.1878C111.49 15.5589 113.889 14.4559 115.755 13.7928C117.621 13.13 118.402 13.1207 118.788 13.1863C120.165 13.4206 121.388 14.2033 122.178 15.3555C122.399 15.6779 122.718 16.3915 122.898 18.363C123.078 20.3355 123.082 22.9762 123.082 26.8632V54.9178L37.3125 54.9178H37.139Z" fill="#4C2249" stroke="#FFBA8E" stroke-width="8" stroke-linecap="round" stroke-linejoin="round"/>
<circle cx="168.303" cy="50.3809" r="50.3809" fill="#FF6600"/>
<path d="M150 37.5C153.745 30.655 160.398 27.4805 168.414 27.4805C177.503 27.4805 185.285 33.4007 188.498 41.7932M156.232 41.7932H145.403V30.343M187 64.5C183.255 71.345 176.208 73.2813 168.192 73.2813C159.103 73.2813 151.321 67.3611 148.108 58.9685M180.375 58.9686H191.203V70.4188" stroke="#FFBA8E" stroke-width="3" stroke-linecap="round" stroke-linejoin="round"/>
</svg>
